<?xml version="1.0" encoding="UTF-8"?>
<!-- Generator: visioncortex VTracer 0.6.12 -->
<svg version="1.1" xmlns="http://www.w3.org/2000/svg" width="752" height="752">
<path d="M0 0 C0.53 0.42 0.53 0.42 3.19 2.56 C6.84 5.73 9.82 9.35 13 13 C14.61 14.61 16.24 16.22 17.88 17.81 C23.01 22.91 27.55 28.3 32 34 C33.02 35.3 34.05 36.61 35.1 37.95 C109.35 133.67 127.63 261.74 82.63 374.42 C72.02 400.06 58.92 424.93 42 447 C41.05 448.29 40.1 449.58 39.12 450.91 C32.58 459.66 25.71 467.8 18.16 475.69 C15.57 478.4 13.08 481.16 10.62 484 C6.97 488.03 3.14 491.47 -1 495 C-2.9 496.77 -4.79 498.54 -6.69 500.31 C-11.83 505.04 -17.16 509.35 -22.74 513.54 C-24.86 515.14 -26.95 516.76 -29.01 518.43 C-38.41 525.97 -48.61 531.96 -59 538 C-60.11 538.68 -61.23 539.35 -62.38 540.05 C-108.68 567.69 -164.02 583.88 -218 585 C-218.5 585.01 -218.5 585.01 -221 585.08 C-249.37 585.74 -277.32 583.33 -305 577 C-306.09 576.75 -307.17 576.51 -308.29 576.25 C-360.27 564.14 -409.14 540.1 -449.52 505.08 C-452 503 -452 503 -454 502 C-454 501.34 -454 500.68 -454 500 C-455.32 499.34 -456.64 498.68 -458 498 C-459.65 496.46 -461.25 494.87 -462.81 493.25 C-465.7 490.3 -468.53 487.55 -471.69 484.88 C-475.54 481.53 -478.69 477.88 -482 474 C-483.41 472.46 -484.83 470.91 -486.25 469.38 C-491.83 463.17 -496.93 456.62 -502 450 C-502.86 448.89 -503.73 447.79 -504.62 446.65 C-534.35 407.57 -555.54 359.35 -564 311 C-564.18 310.01 -564.36 309.02 -564.54 308 C-576.41 242.2 -569.48 173.21 -542 112 C-541.34 110.43 -540.67 108.85 -539.99 107.23 C-527.92 79.15 -510.76 53.24 -491 30 C-490.51 29.4 -490.51 29.4 -488 26.39 C-475.66 11.75 -462.16 -2.27 -447 -14 C-444.97 -15.7 -442.95 -17.41 -440.94 -19.12 C-339.56 -103.43 -190.23 -111.52 0 0 Z M-171 -83 C-171 -82.01 -171 -81.02 -171 -80 C-169.68 -80.33 -168.36 -80.66 -167 -81 C-168.32 -81.66 -169.64 -82.32 -171 -83 Z M-376 -39 C-377.53 -38.22 -379.07 -37.44 -380.65 -36.64 C-390.93 -31.38 -400.55 -25.63 -410 -19 C-411.39 -18.05 -412.78 -17.1 -414.21 -16.12 C-423.66 -9.61 -432.45 -2.65 -441 5 C-441.88 5.78 -442.76 6.56 -443.67 7.37 C-446.13 9.56 -448.56 11.78 -451 14 C-452 14.9 -453 15.79 -454.04 16.72 C-459.76 21.88 -465.04 27.08 -470 33 C-470.95 34.08 -471.91 35.16 -472.89 36.27 C-547.75 121.06 -570.2 239.91 -536.38 347.14 C-524.06 383.45 -505.8 421.58 -479.17 449.63 C-477.17 451.81 -475.34 454.15 -473.52 456.49 C-468.32 463.03 -462.43 468.82 -456.5 474.69 C-455.96 475.23 -455.96 475.23 -453.2 477.99 C-395.05 535.82 -311.83 568.06 -230 567 C-230 567.66 -230 568.32 -230 569 C-229.34 569 -228.68 569 -228 569 C-228 568.34 -228 567.68 -228 567 C-227.12 567.02 -226.23 567.04 -225.32 567.06 C-167.7 567.74 -105.69 549.66 -58 517 C-56.99 516.35 -55.99 515.69 -54.95 515.02 C-47.34 510.04 -40.16 504.61 -33 499 C-32.24 498.42 -32.24 498.42 -28.38 495.5 C-23.96 491.97 -19.79 488.25 -15.64 484.42 C-13.38 482.34 -11.07 480.32 -8.75 478.31 C-5 475 -5 475 -1.31 471 C2 468 2 468 7 469 C7 468.34 7 467.68 7 467 C6.34 466.67 5.68 466.34 5 466 C7.44 461.12 10.5 457.46 14.4 453.66 C16.96 451.05 19.09 448.38 21.25 445.44 C23.58 442.28 25.91 439.12 28.3 436.01 C82.17 365.85 100.07 269.79 83 184 C82.9 183.48 82.9 183.48 82.41 180.87 C77.59 155.62 69.32 131.1 58 108 C57.54 107.07 57.09 106.13 56.62 105.17 C46.48 84.54 34.58 65.81 20 48 C19.5 47.36 19.5 47.36 16.95 44.11 C10.16 35.59 2.99 27.71 -4.69 20 C-5.54 19.14 -6.4 18.28 -7.28 17.39 C-12.47 12.26 -17.87 7.53 -23.56 2.97 C-26.36 0.71 -29.02 -1.67 -31.69 -4.06 C-123.64 -82.09 -270.23 -96.56 -376 -39 Z M-142 -69 C-142.33 -68.01 -142.66 -67.02 -143 -66 C-142.34 -66 -141.68 -66 -141 -66 C-140.67 -66.99 -140.34 -67.98 -140 -69 C-140.66 -69 -141.32 -69 -142 -69 Z M-87 -46 C-87 -45.34 -87 -44.68 -87 -44 C-86.34 -44.33 -85.68 -44.66 -85 -45 C-85.66 -45.33 -86.32 -45.66 -87 -46 Z M-458 2 C-454 3 -454 3 -454 3 Z M-464 6 C-464 6.99 -464 7.98 -464 9 C-463.34 8.01 -462.68 7.02 -462 6 C-462.66 6 -463.32 6 -464 6 Z M-3 13 C-2 15 -2 15 -2 15 Z M-463 16 C-462 18 -462 18 -462 18 Z M-472 18 C-472.66 19.32 -473.32 20.64 -474 22 C-472.68 21.34 -471.36 20.68 -470 20 C-470 19.34 -470 18.68 -470 18 C-470.66 18 -471.32 18 -472 18 Z M44 69 C45 71 45 71 45 71 Z M83 164 C83.33 164.99 83.66 165.98 84 167 C84.33 166.01 84.66 165.02 85 164 C84.34 164 83.68 164 83 164 Z M90 197 C90 197.99 90 198.98 90 200 C90.99 199.67 91.98 199.34 93 199 C92.67 198.34 92.34 197.68 92 197 C91.34 197 90.68 197 90 197 Z M94 209 C94.66 209.66 95.32 210.32 96 211 C96 210.34 96 209.68 96 209 C95.34 209 94.68 209 94 209 Z M92 228 C93 230 93 230 93 230 Z M104 254 C105 256 105 256 105 256 Z M91 262 C91.33 262.66 91.66 263.32 92 264 C92.33 263.34 92.66 262.68 93 262 C92.34 262 91.68 262 91 262 Z M104 264 C104 264.66 104 265.32 104 266 C104.66 265.67 105.32 265.34 106 265 C105.34 264.67 104.68 264.34 104 264 Z M-560 270 C-559.67 271.65 -559.34 273.3 -559 275 C-558.34 273.68 -557.68 272.36 -557 271 C-557.99 270.67 -558.98 270.34 -560 270 Z M-554 290 C-554 293 -554 293 -554 293 Z M88 301 C89 303 89 303 89 303 Z M82 330 C83 332 83 332 83 332 Z M82 341 C81.67 341.99 81.34 342.98 81 344 C81.99 343.67 82.98 343.34 84 343 C84 342.34 84 341.68 84 341 C83.34 341 82.68 341 82 341 Z M63 382 C63.66 382.66 64.32 383.32 65 384 C65 383.34 65 382.68 65 382 C64.34 382 63.68 382 63 382 Z M53 406 C54 408 54 408 54 408 Z M51 418 C52 420 52 420 52 420 Z M45 424 C45.66 424.33 45.66 424.33 49 426 C49.66 424.68 50.32 423.36 51 422 C49 422 49 422 45 424 Z M36 429 C37 431 37 431 37 431 Z M48 430 C47.67 430.66 47.34 431.32 47 432 C47.66 432 48.32 432 49 432 C48.67 431.34 48.34 430.68 48 430 Z M36 439 C36 439.66 36 440.32 36 441 C36.66 440.67 37.32 440.34 38 440 C37.34 439.67 36.68 439.34 36 439 Z M39 439 C39.5 439.33 39.5 439.33 42 441 C42.33 440.34 42.66 439.68 43 439 C41.68 439 40.36 439 39 439 Z M39 442 C39.33 442.66 39.66 443.32 40 444 C40.33 443.34 40.66 442.68 41 442 C40.34 442 39.68 442 39 442 Z M21 453 C20.67 453.99 20.34 454.98 20 456 C20.99 455.67 21.98 455.34 23 455 C23 454.34 23 453.68 23 453 C22.34 453 21.68 453 21 453 Z M16 456 C15.67 457.32 15.34 458.64 15 460 C15.66 460.33 15.66 460.33 19 462 C21 458 21 458 20 456 C18.68 456 17.36 456 16 456 Z M17 464 C16.67 464.66 16.34 465.32 16 466 C16.66 466.66 17.32 467.32 18 468 C17.67 466.68 17.34 465.36 17 464 Z M3 469 C2.67 469.99 2.34 470.98 2 472 C2.99 471.67 3.98 471.34 5 471 C4.34 470.34 3.68 469.68 3 469 Z M6 477 C6.33 477.66 6.66 478.32 7 479 C7.33 478.34 7.66 477.68 8 477 C7.34 477 6.68 477 6 477 Z M1 478 C0.67 478.99 0.34 479.98 0 481 C0.66 481 1.32 481 2 481 C2.33 480.01 2.66 479.02 3 478 C2.34 478 1.68 478 1 478 Z M-11 481 C-10.67 482.32 -10.34 483.64 -10 485 C-9.34 485 -8.68 485 -8 485 C-8.33 483.68 -8.66 482.36 -9 481 C-9.66 481 -10.32 481 -11 481 Z M1 482 C1 482.66 1 483.32 1 484 C1.66 484 2.32 484 3 484 C3 483.34 3 482.68 3 482 C2.34 482 1.68 482 1 482 Z M-11 486 C-11.33 487.32 -11.66 488.64 -12 490 C-11.67 490.16 -11.67 490.16 -10 491 C-9.67 489.35 -9.34 487.7 -9 486 C-9.66 486 -10.32 486 -11 486 Z M-6 486 C-6.66 487.65 -7.32 489.3 -8 491 C-6.02 490.67 -4.04 490.34 -2 490 C-2.66 488.68 -3.32 487.36 -4 486 C-4.66 486 -5.32 486 -6 486 Z M-443 499 C-442 501 -442 501 -442 501 Z M-437 501 C-436.67 501.99 -436.34 502.98 -436 504 C-435.34 503.01 -434.68 502.02 -434 501 C-434.99 501 -435.98 501 -437 501 Z M-31 503 C-31 506 -31 506 -31 506 Z M-24 508 C-23 510 -23 510 -23 510 Z M-28 511 C-27.67 511.66 -27.34 512.32 -27 513 C-26.67 512.34 -26.34 511.68 -26 511 C-26.66 511 -27.32 511 -28 511 Z M-43 514 C-39 515 -39 515 -37 514 C-37 513.34 -37 512.68 -37 512 C-39 512 -39 512 -43 514 Z M-36 517 C-36 517.99 -36 518.98 -36 520 C-35.34 519.67 -34.68 519.34 -34 519 C-34 518.34 -34 517.68 -34 517 C-34.66 517 -35.32 517 -36 517 Z M-62 526 C-61 528 -61 528 -61 528 Z M-115 549 C-115.33 549.99 -115.66 550.98 -116 552 C-115.01 551.67 -114.02 551.34 -113 551 C-113.66 550.34 -114.32 549.68 -115 549 Z M-343 552 C-342.34 552.66 -341.68 553.32 -341 554 C-341 553.34 -341 552.68 -341 552 C-341.66 552 -342.32 552 -343 552 Z M-354 553 C-353.67 553.99 -353.34 554.98 -353 556 C-352.34 556 -351.68 556 -351 556 C-351 555.01 -351 554.02 -351 553 C-351.99 553 -352.98 553 -354 553 Z M-126 556 C-126 556.66 -126 557.32 -126 558 C-126.99 558 -127.98 558 -129 558 C-128.67 558.99 -128.34 559.98 -128 561 C-124 560 -124 560 -123 558 C-123.33 557.34 -123.66 556.68 -124 556 C-124.66 556 -125.32 556 -126 556 Z M-332 558 C-331.67 558.66 -331.34 559.32 -331 560 C-330.67 559.34 -330.34 558.68 -330 558 C-330.66 558 -331.32 558 -332 558 Z M-317 560 C-317.33 560.66 -317.66 561.32 -318 562 C-317.34 562 -316.68 562 -316 562 C-316.33 561.34 -316.66 560.68 -317 560 Z M-149 561 C-148 563 -148 563 -148 563 Z M-264 567 C-264.66 568.32 -265.32 569.64 -266 571 C-265.01 571 -264.02 571 -263 571 C-262.67 570.01 -262.34 569.02 -262 568 C-262.66 567.67 -263.32 567.34 -264 567 Z M-168 567 C-168 567.66 -168 568.32 -168 569 C-167.34 569 -166.68 569 -166 569 C-166 568.34 -166 567.68 -166 567 C-166.66 567 -167.32 567 -168 567 Z M-164 567 C-163 569 -163 569 -163 569 Z M-143 567 C-142.67 567.99 -142.34 568.98 -142 570 C-141.67 569.01 -141.34 568.02 -141 567 C-141.66 567 -142.32 567 -143 567 Z M-269 568 C-268.34 568.66 -267.68 569.32 -267 570 C-267 569.34 -267 568.68 -267 568 C-267.66 568 -268.32 568 -269 568 Z M-256 572 C-255.01 572.99 -254.02 573.98 -253 575 C-252.34 574.67 -251.68 574.34 -251 574 C-251 573.34 -251 572.68 -251 572 C-252.65 572 -254.3 572 -256 572 Z M-244 572 C-243 574 -243 574 -243 574 Z M-231 572 C-231.33 572.66 -231.66 573.32 -232 574 C-231.34 574 -230.68 574 -230 574 C-230.33 573.34 -230.66 572.68 -231 572 Z M-186 572 C-186.33 572.99 -186.66 573.98 -187 575 C-185.35 575 -183.7 575 -182 575 C-182 574.01 -182 573.02 -182 572 C-183.32 572 -184.64 572 -186 572 Z M-178 572 C-178 572.66 -178 573.32 -178 574 C-177.01 573.67 -176.02 573.34 -175 573 C-175.99 572.67 -176.98 572.34 -178 572 Z M-293 573 C-292 575 -292 575 -292 575 Z M-258 573 C-257.67 573.66 -257.34 574.32 -257 575 C-256.67 574.34 -256.34 573.68 -256 573 C-256.66 573 -257.32 573 -258 573 Z M-290 575 C-289 577 -289 577 -289 577 Z M-282 575 C-282 575.99 -282 576.98 -282 578 C-281.01 578 -280.02 578 -279 578 C-279 577.34 -279 576.68 -279 576 C-279.99 575.67 -280.98 575.34 -282 575 Z M-232 581 C-232 581.66 -232 582.32 -232 583 C-230.35 582.67 -228.7 582.34 -227 582 C-227 581.67 -227 581.34 -227 581 C-228.65 581 -230.3 581 -232 581 Z " fill="#000000" transform="translate(607,129)"/>
<path d="M0 0 C1.09 0.19 2.18 0.39 3.3 0.58 C65.45 11.87 124.7 42.85 169 88 C169.33 88.99 169.66 89.98 170 91 C171.32 91.66 172.64 92.32 174 93 C176.42 95.62 178.71 98.28 181 101 C181.44 101.5 181.44 101.5 183.66 104.01 C225.2 151.25 252.7 214.05 258 277 C258.08 277.98 258.17 278.95 258.26 279.96 C261.64 322.12 257.03 363.45 244.93 403.9 C244.14 406.52 243.39 409.14 242.64 411.77 C233.5 441.81 216.82 471.02 198 496 C197.28 496.99 196.56 497.97 195.82 498.99 C191.59 504.75 187.19 510.21 182.34 515.45 C180.44 517.52 178.58 519.64 176.75 521.77 C172.86 526.16 168.83 530.34 164.69 534.5 C163.97 535.23 163.26 535.95 162.52 536.7 C157.24 542 157.24 542 155 542 C155 542.66 155 543.32 155 544 C151.53 547.23 147.73 550.08 144 553 C143.12 553.69 142.24 554.39 141.34 555.1 C68.39 611.23 -27.23 636.3 -118 616 C-119.63 615.64 -121.25 615.28 -122.93 614.91 C-175.19 602.91 -223.21 579.38 -262.86 542.96 C-264.8 541.18 -266.8 539.46 -268.81 537.75 C-280.66 527.14 -291.23 515.54 -301 503 C-301.91 501.84 -302.82 500.67 -303.75 499.47 C-370.94 411.79 -385.76 294.64 -346 192 C-338.03 172.83 -328.69 154.18 -317 137 C-316.56 136.34 -316.56 136.34 -314.31 132.98 C-308.9 124.97 -303.29 117.34 -297 110 C-296.08 108.9 -295.16 107.8 -294.22 106.66 C-282.07 92.29 -268.93 78.5 -254 67 C-252.89 66.08 -251.78 65.17 -250.64 64.23 C-181.78 7.66 -87.48 -15.67 0 0 Z M-247 67 C-248.03 67.84 -249.05 68.67 -250.11 69.53 C-263.17 80.37 -276.7 91.9 -287.31 105.19 C-290.49 109.14 -293.72 113.02 -297 116.88 C-302.09 122.98 -306.61 129.38 -311 136 C-311.73 137.09 -312.46 138.18 -313.21 139.3 C-345.7 188.71 -363.19 245.48 -363.19 304.65 C-363.19 307.9 -363.21 311.15 -363.22 314.4 C-363.27 332.33 -361.55 349.67 -358.49 367.32 C-358 371 -358 371 -359 373 C-358.34 373.33 -357.68 373.66 -357 374 C-355.86 378.1 -354.81 382.18 -353.81 386.31 C-349.22 404.62 -343.09 421.93 -335 439 C-334.56 439.93 -334.12 440.86 -333.67 441.81 C-324.81 460.39 -314.76 477.78 -302 494 C-301.56 494.57 -301.56 494.57 -299.35 497.45 C-294.24 504.07 -288.96 510.42 -283.27 516.55 C-281.3 518.68 -279.39 520.87 -277.5 523.06 C-270.79 530.61 -263.72 537.43 -255.83 543.73 C-252.96 546.03 -250.17 548.42 -247.38 550.81 C-202.64 587.9 -147.01 608.2 -90 616 C-88.32 616.25 -86.64 616.49 -84.91 616.75 C-29.9 623.8 29.34 612.05 79 588 C80.38 587.34 81.76 586.69 83.19 586.01 C107.39 574.24 130.23 559.29 150 541 C151.77 539.41 153.54 537.83 155.31 536.25 C158.65 533.27 161.84 530.18 165 527 C166.07 525.96 167.13 524.91 168.23 523.84 C175.31 516.87 181.89 509.82 188 502 C188.69 501.17 189.37 500.34 190.08 499.48 C194.24 494.44 197.89 489.25 201.32 483.69 C202.97 481.06 204.69 478.5 206.44 475.94 C209 472 209 472 209 470 C209.66 470 210.32 470 211 470 C213.09 466.03 215.05 462.04 217 458 C218.27 455.5 219.54 453 220.81 450.5 C226.52 439.07 232.22 427.48 236.38 415.38 C238 411 238 411 241 409 C240.67 407.68 240.34 406.36 240 405 C240.78 401.91 241.68 398.85 242.62 395.81 C270.66 300.72 251.2 186.81 184 112 C182.52 110.17 181.04 108.34 179.56 106.5 C175.63 101.67 171.48 97.33 167 93 C163.94 89.94 160.89 86.86 157.88 83.75 C153.76 79.64 149.42 75.95 144.88 72.32 C141.89 69.91 138.98 67.43 136.06 64.94 C130.3 60.15 124.33 56 118 52 C116.43 51 114.86 50 113.24 48.96 C71.55 22.59 25.29 5.6 -24 1 C-25.16 0.89 -26.31 0.78 -27.5 0.66 C-105.59 -5.46 -185.99 17.35 -247 67 Z M254 272 C254.33 272.66 254.66 273.32 255 274 C255.33 273.34 255.66 272.68 256 272 C255.34 272 254.68 272 254 272 Z M246 390 C246 393 246 393 246 393 Z M209 473 C209 473.66 209 474.32 209 475 C209.66 475 210.32 475 211 475 C211 474.34 211 473.68 211 473 C210.34 473 209.68 473 209 473 Z M201 485 C202 487 202 487 202 487 Z " fill="#000000" transform="translate(430,67)"/>
<path d="M0 0 C1.22 0.01 2.45 0.01 3.71 0.02 C12.78 0.1 12.78 0.1 13.94 1.25 C14.18 12.01 14.18 12.01 12.94 13.25 C11.91 13.24 10.88 13.23 9.81 13.21 C5.96 13.19 2.66 13.24 -1.06 14.25 C-2.44 19.31 -2.44 19.31 -2.06 24.25 C-0.43 24.39 1.2 24.54 2.88 24.69 C7.94 25.25 7.94 25.25 8.94 26.25 C9.3 33.71 9.3 33.71 6.94 37.25 C4.28 37.66 1.61 38 -1.06 38.25 C-3.81 41 -2.62 44.89 -2.06 48.25 C3.25 49.19 3.25 49.19 8.94 49.25 C13.67 52.41 12.27 55.92 11.94 61.25 C8.45 64.74 3.2 63.58 -1.5 63.56 C-2.56 63.58 -3.63 63.59 -4.72 63.61 C-12.7 63.62 -12.7 63.62 -16.06 60.25 C-16.37 56.97 -16.37 56.97 -16.27 52.87 C-16.25 51.34 -16.22 49.81 -16.19 48.24 C-16.17 47.42 -16.17 47.42 -16.06 43.25 C-16.04 41.57 -16.01 39.89 -15.99 38.16 C-15.91 32.9 -15.8 27.64 -15.69 22.38 C-15.66 20.57 -15.63 18.76 -15.59 16.9 C-15.56 15.18 -15.52 13.47 -15.48 11.7 C-15.45 10.14 -15.41 8.59 -15.38 6.99 C-14.59 -2.34 -7.47 -0.13 0 0 Z " fill="#000000" transform="translate(385.0625,82.75)"/>
<path d="M0 0 C3.19 3.19 3.69 4.54 4.82 8.76 C5.13 9.88 5.44 11 5.75 12.15 C5.91 12.73 5.91 12.73 6.69 15.69 C7.01 16.87 7.33 18.05 7.66 19.26 C8.45 22.17 9.23 25.09 10 28 C12.49 21.77 13.23 15.67 14.22 9.05 C15 5 15 5 17 2 C24.15 1.43 24.15 1.43 28 4 C28.7 10.34 27.11 16.57 25.88 22.77 C25.77 23.33 25.77 23.33 25.22 26.16 C24.77 28.51 24.3 30.86 23.84 33.21 C23.12 36.82 22.43 40.43 21.73 44.04 C21.28 46.32 20.83 48.61 20.38 50.89 C20.17 51.98 19.97 53.06 19.75 54.18 C18.23 61.77 18.23 61.77 16 64 C8.59 64.59 8.59 64.59 5 61 C3.82 56.77 2.77 52.59 1.81 48.31 C1.54 47.13 1.27 45.95 0.99 44.74 C0.31 41.83 -0.34 38.91 -1 36 C-2.61 41.25 -3.67 46.46 -4.56 51.88 C-5.89 59.89 -5.89 59.89 -7 61 C-14.39 61.61 -14.39 61.61 -19 57 C-18.75 52.81 -18.27 49.01 -17.53 44.9 C-17.33 43.72 -17.13 42.53 -16.93 41.31 C-16.5 38.8 -16.07 36.3 -15.62 33.79 C-14.94 29.95 -14.3 26.11 -13.66 22.26 C-13.24 19.83 -12.82 17.4 -12.4 14.96 C-12.21 13.81 -12.01 12.66 -11.81 11.47 C-10.3 3.08 -9.16 -0.98 0 0 Z " fill="#000000" transform="translate(419,87)"/>
<path d="M0 0 C3.46 3.46 3.5 8.7 4.38 13.39 C4.49 13.96 4.49 13.96 5.05 16.85 C5.51 19.26 5.97 21.68 6.42 24.09 C7.12 27.79 7.83 31.48 8.54 35.17 C8.99 37.52 9.44 39.86 9.88 42.21 C10.1 43.31 10.31 44.42 10.53 45.56 C11.38 50.13 12 54.33 12 59 C7 62 7 62 1 62 C-1.52 59.09 -3.59 56.38 -5.69 53.19 C-11.84 44.16 -11.84 44.16 -15 41 C-14.71 42.22 -14.42 43.44 -14.12 44.69 C-13.75 46.3 -13.38 47.91 -13 49.56 C-12.63 51.15 -12.26 52.74 -11.88 54.38 C-11.1 58.46 -10.49 61.88 -11 66 C-15.29 68.15 -17.3 68.85 -22 68 C-24.69 62.15 -26.05 56.03 -27.48 49.77 C-27.7 48.82 -27.92 47.86 -28.14 46.88 C-28.6 44.88 -29.05 42.88 -29.5 40.87 C-30.19 37.81 -30.89 34.75 -31.59 31.69 C-32.03 29.74 -32.48 27.78 -32.92 25.83 C-33.32 24.07 -33.72 22.3 -34.13 20.48 C-35 16 -35 16 -35 11 C-30.97 8.28 -28.97 8 -24 8 C-21.06 11.04 -21.06 11.04 -18 15.06 C-16.99 16.37 -15.98 17.68 -14.94 19.04 C-12.25 22.66 -9.61 26.31 -7 30 C-7.72 22.04 -9.52 14.63 -11.55 6.91 C-12.45 -0.91 -6.09 -0.49 0 0 Z " fill="#000000" transform="translate(330,86)"/>
<path d="M0 0 C5.31 4.68 7.74 7.94 7.62 15.31 C2.62 18.31 2.62 18.31 -3.38 18.31 C-4.37 16.99 -5.36 15.67 -6.38 14.31 C-13.63 14.31 -15.08 17.44 -19.06 23.19 C-23.49 31.09 -23.57 37.42 -23.38 46.31 C-20 46.69 -20 46.69 -16.38 46.31 C-14.75 43.44 -14.75 43.44 -14.38 40.31 C-15.37 39.65 -16.36 38.99 -17.38 38.31 C-17.95 30.89 -17.95 30.89 -15.38 28.31 C-9.47 28.58 -4.59 29.49 0.62 32.31 C3.05 39.6 -3.23 50.6 -8 56.19 C-13.46 61.24 -17.08 61.81 -24.38 61.31 C-30.76 59.02 -33.41 55.24 -36.38 49.31 C-38.24 30.48 -32.74 12.85 -18.38 0.31 C-11.97 -2.25 -6.35 -3.17 0 0 Z " fill="#000000" transform="translate(481.375,100.6875)"/>
<path d="M0 0 C9.65 11.7 18.3 29.96 13.75 45.19 C11.25 50.64 9.4 53.3 4 56 C-7.22 57.03 -13.53 52.95 -20 44 C-27.41 31.08 -33.55 17.35 -27.94 2.56 C-20.52 -8.96 -10.05 -8.21 0 0 Z M-16 12 C-16.86 22.14 -13.98 31.74 -8 40 C-5 41.62 -5 41.62 -2 42 C3.4 37.95 2.72 36.56 2 30 C-0.12 22.8 -2.76 15.5 -8 10 C-14 10 -14 10 -16 12 Z " fill="#000000" transform="translate(284,108)"/>
<path d="M0 0 C3 2 3 2 2.97 5.56 C1.85 10.66 -0.04 14.43 -2.56 19 C-5.9 25.12 -9.17 31.25 -12.25 37.5 C-20.89 54.89 -20.89 54.89 -24 58 C-28.65 57.7 -30.13 56.9 -34 54 C-33.95 48.96 -31.71 44.98 -29.44 40.56 C-29.08 39.86 -29.08 39.86 -27.25 36.28 C-25.19 32.36 -23.1 28.46 -21 24.56 C-17.24 17.59 -13.88 10.48 -10.57 3.29 C-7.85 -2.42 -6.05 -1.01 0 0 Z " fill="#000000" transform="translate(510,114)"/>
<path d="M0 0 C1.8 3.59 0.65 7.17 0 11 C-3 12 -3 12 -9 12 C-9 13.65 -9 15.3 -9 17 C-5.31 18.58 -1.82 19.83 2 21 C12.81 24.59 18.13 27.29 23 38 C23.8 44.59 23.12 48.74 19 54 C11.85 58.65 6.41 59.49 -1.44 56.06 C-6 53.42 -6 53.42 -6 47 C-5.01 45.35 -4.02 43.7 -3 42 C2.69 42.19 2.69 42.19 8 43 C8 38 8 38 5.47 36.31 C0.62 34.48 -4.31 33.34 -9.34 32.16 C-16.44 29.91 -21.11 25.96 -24.31 19.25 C-25.45 13.85 -25.14 9.05 -22.44 4.19 C-15.63 -1.92 -8.36 -4.18 0 0 Z " fill="#000000" transform="translate(241,123)"/>
<path d="M0 0 C5.96 5.96 2.48 14.89 1 22.5 C0.9 23.01 0.9 23.01 0.42 25.57 C-0.05 28.05 -0.52 30.52 -1 33 C-0.34 33 0.32 33 1 33 C1.66 31.35 2.32 29.7 3 28 C4.28 25.81 5.59 23.65 6.94 21.5 C7.63 20.4 8.32 19.29 9.03 18.16 C9.68 17.11 10.33 16.07 11 15 C11.99 13.35 12.98 11.7 14 10 C20 10 20 10 25 13 C26.21 19.07 24.83 20.16 21.29 24.9 C18.62 28.52 16.15 32.25 13.68 36.02 C12.73 37.45 11.78 38.89 10.81 40.37 C8.84 43.35 6.88 46.33 4.92 49.32 C3.97 50.75 3.03 52.17 2.05 53.64 C1.2 54.94 0.35 56.23 -0.52 57.56 C-2.85 60.79 -4.88 63.53 -8 66 C-14.83 64.63 -14.83 64.63 -18 61 C-17.46 53.84 -15.91 46.78 -14.62 39.73 C-14 36 -14 36 -14 33 C-14.68 34.1 -15.35 35.19 -16.05 36.32 C-16.94 37.76 -17.83 39.2 -18.75 40.69 C-19.63 42.11 -20.51 43.54 -21.42 45.01 C-27.22 53.98 -27.22 53.98 -31 54.06 C-34 53 -34 53 -38 49 C-37.18 42.98 -32.95 37.88 -29.69 32.88 C-29.07 31.92 -28.45 30.96 -27.82 29.98 C-26.53 27.98 -25.24 25.99 -23.95 24 C-22.04 21.07 -20.15 18.12 -18.25 15.18 C-7.38 -1.68 -7.38 -1.68 0 0 Z " fill="#000000" transform="translate(529,127)"/>
<path d="M0 0 C3.95 2.63 4 4.58 4 9.19 C3 12 3 12 -0.44 12.88 C-2.29 12.94 -4.15 13 -6 13 C-6 14.98 -6 16.96 -6 19 C-1.98 20.07 -1.98 20.07 3.38 20.56 C15.37 22.04 23.59 23.83 30 35 C31.75 41.98 30.96 46.01 27 52 C20.04 58.03 13.52 57.42 5 55 C1.72 51.72 3.34 48.32 4 44 C4.33 43.34 4.66 42.68 5 42 C8.67 42.25 12.34 42.58 16 43 C16 38 16 38 12 35 C8.89 34.55 5.76 34.23 2.62 34 C-8 33.21 -15.03 30.94 -20 21 C-20.92 11.55 -20.32 7.69 -13 1 C-9.02 -0.99 -4.33 -0.15 0 0 Z " fill="#000000" transform="translate(204,144)"/>
<path d="M0 0 C2.72 1.92 5.39 3.93 8 6 C9.46 6.99 10.93 7.98 12.44 9 C17.49 13.26 17.49 13.26 17 18 C13.82 23.05 13.16 24 7 24 C5.85 22.99 4.69 21.98 3.5 20.94 C0 18 0 18 -5 19 C-8 22 -8 22 -7 26 C-6.11 26.64 -5.23 27.28 -4.31 27.94 C-3.55 28.62 -2.79 29.3 -2 30 C-4 35 -4 35 -7 39 C-12 38 -12 38 -15 36 C-20.73 36 -21.22 36.3 -24 41 C-23 45 -23 45 -19.38 47.88 C-16 51 -16 51 -15.81 54.12 C-17 57 -17 57 -21 61 C-26.04 61.03 -28.51 59.15 -32.06 55.75 C-32.92 54.94 -33.77 54.12 -34.65 53.28 C-35.42 52.53 -36.2 51.78 -37 51 C-38.05 50.09 -39.1 49.19 -40.19 48.25 C-42 46 -42 46 -41 41 C-38.7 37.94 -38.7 37.94 -35.69 34.56 C-35.14 33.95 -35.14 33.95 -32.4 30.83 C-31.84 30.2 -31.84 30.2 -29 27 C-26.93 24.61 -24.87 22.21 -22.81 19.81 C-22.32 19.24 -22.32 19.24 -19.84 16.34 C-16.44 12.35 -13.13 8.29 -9.84 4.21 C-5.43 -1.09 -5.43 -1.09 0 0 Z " fill="#000000" transform="translate(567,154)"/>
<path d="M0 0 C1.46 1.24 2.93 2.47 4.44 3.75 C8.31 7.28 11.62 10.99 15 15 C15.79 15.88 16.58 16.76 17.39 17.66 C69.8 77.05 85.7 162.99 61.15 237.8 C49.61 270.61 32.23 298.13 8 323 C7.46 323.57 7.46 323.57 4.75 326.44 C-47.68 380.9 -131.3 399.46 -203.38 381.75 C-267.93 365.07 -321.52 321.6 -350 261 C-350.29 260.39 -350.29 260.39 -351.77 257.32 C-383.73 187.98 -375.18 101.7 -331.91 39.05 C-325.47 30.09 -318.82 21.56 -311.29 13.48 C-309.34 11.37 -307.48 9.19 -305.62 7 C-225.7 -81.19 -85.19 -75.62 0 0 Z M-231 -36 C-232.25 -35.49 -233.51 -34.98 -234.8 -34.45 C-249.85 -28.2 -264.2 -20.13 -277 -10 C-277.91 -9.28 -278.82 -8.56 -279.75 -7.82 C-291.77 1.85 -303.08 12.11 -312.73 24.18 C-314.16 25.95 -315.61 27.7 -317.11 29.41 C-365.51 85.24 -375.97 170.08 -352.56 238.44 C-344.62 260.19 -334.56 279.86 -320 298 C-319.59 298.51 -319.59 298.51 -317.52 301.12 C-315.38 303.77 -313.21 306.4 -311 309 C-310.63 309.44 -310.63 309.44 -308.74 311.67 C-303.27 318 -303.27 318 -301 318 C-301 318.66 -301 319.32 -301 320 C-299.15 321.68 -297.29 323.35 -295.38 324.96 C-293.82 326.29 -292.3 327.66 -290.8 329.07 C-256.27 361.68 -205.23 380.64 -158 382 C-156.67 382.04 -155.34 382.08 -153.96 382.12 C-98.87 382.94 -45.04 363.75 -4.4 326.21 C-2.77 324.71 -1.12 323.24 0.56 321.79 C6.48 316.65 11.25 311.21 16 305 C16.83 303.98 17.66 302.97 18.52 301.92 C68.04 240.99 78.76 158.07 51.12 85.24 C43.03 65.23 32.52 46.86 19 30 C18.2 28.99 17.39 27.98 16.56 26.95 C-42.13 -44.5 -145.07 -73.77 -231 -36 Z M-108 380 C-107.67 380.66 -107.34 381.32 -107 382 C-106.67 381.34 -106.34 380.68 -106 380 C-106.66 380 -107.32 380 -108 380 Z " fill="#000000" transform="translate(524,220)"/>
<path d="M0 0 C6.48 5.09 12.1 11.08 17.9 16.93 C21.46 20.46 25.22 23.71 29 27 C31.02 28.85 33.02 30.73 35 32.62 C35.95 33.52 36.9 34.42 37.88 35.35 C40 38 40 38 40 43 C38 45.94 38 45.94 35 48 C27.58 46.63 20.6 43.75 13.54 41.14 C12.37 40.77 11.2 40.39 10 40 C9.67 40.33 9.34 40.66 9 41 C10.16 42.01 11.31 43.02 12.5 44.06 C13.99 45.36 15.47 46.66 17 48 C18.46 49.22 19.93 50.43 21.44 51.69 C25 55 25 55 26 59 C22 64.67 22 64.67 18 66 C15.69 64.23 15.69 64.23 13 61.62 C9.34 58.17 5.67 54.84 1.75 51.69 C-2.85 47.96 -7.38 44.16 -11.88 40.31 C-12.49 39.78 -12.49 39.78 -15.62 37.11 C-18.76 34.22 -21.55 31.5 -24 28 C-22.91 24.17 -21.82 21.82 -19 19 C-9.77 20.28 -0.9 23.3 8 26 C5.16 22.2 2.15 19.32 -1.56 16.38 C-4.55 14 -7.3 11.7 -10 9 C-8.58 1.92 -7.61 -1.52 0 0 Z " fill="#000000" transform="translate(171,168)"/>
<path d="M0 0 C2.52 2.21 4.97 4.48 7.38 6.81 C8.64 8.02 9.91 9.22 11.21 10.46 C14 14 14 14 14.16 17.2 C12.21 21.91 9.87 23.78 5 25 C2.33 22.33 -0.33 19.67 -3 17 C-8 17 -8 17 -12 21 C-10 25 -10 25 -7 29 C-9 34 -9 34 -14 37 C-19 35 -19 35 -24 32 C-27.44 33.94 -27.44 33.94 -30 37 C-29.39 41.98 -27.64 43.36 -24 47 C-24 52.8 -24.59 53.57 -29 57 C-35.61 57 -36.14 55.12 -40.19 50.12 C-41.23 48.85 -42.28 47.57 -43.36 46.26 C-44.23 45.18 -45.1 44.11 -46 43 C-46.66 42.34 -47.32 41.68 -48 41 C-48 32.11 -39.33 27.54 -33 22 C-31.85 20.84 -30.69 19.69 -29.5 18.5 C-27.12 16.12 -24.66 13.83 -22.12 11.62 C-19.01 8.89 -16.14 6.14 -13.25 3.19 C-6.22 -3.73 -6.22 -3.73 0 0 Z " fill="#000000" transform="translate(596,182)"/>
<path d="M0 0 C8.55 6.88 10.63 15.43 10 26 C7.22 33.67 3.15 37.28 -4.31 40.38 C-8 41 -8 41 -13.31 40.31 C-14.09 40.26 -14.09 40.26 -18 40 C-18.66 41.65 -19.32 43.3 -20 45 C-21.39 47.82 -22.83 50.61 -24.31 53.38 C-25.07 54.83 -25.83 56.28 -26.61 57.77 C-27.01 58.31 -27.01 58.31 -29 61 C-34.37 59.93 -35.82 59.3 -39 55 C-39.52 48.09 -35.45 44.83 -31 40 C-29.63 37.69 -28.29 35.36 -27 33 C-28.02 33.73 -29.05 34.47 -30.11 35.22 C-31.45 36.16 -32.8 37.1 -34.19 38.06 C-35.52 39 -36.86 39.94 -38.23 40.91 C-42 43 -42 43 -47 42 C-50 39 -50 39 -51 34 C-46.85 29.76 -42.01 26.53 -37.13 23.18 C-33.07 20.36 -29.07 17.46 -25.06 14.56 C-23.51 13.45 -21.96 12.33 -20.37 11.18 C-17.75 9.27 -15.14 7.35 -12.57 5.38 C-5.5 0 -5.5 0 0 0 Z M-6 16 C-8.52 17.1 -8.52 17.1 -11.25 19.06 C-11.71 19.38 -11.71 19.38 -14.02 20.97 C-16 23 -16 23 -15 27 C-11.99 30.01 -9.97 28.91 -6 28 C-3 25 -3 25 -3 19 C-3.99 18.01 -4.98 17.02 -6 16 Z " fill="#000000" transform="translate(618,210)"/>
<path d="M0 0 C5.08 1.67 10.04 3.63 15 5.62 C16.37 6.17 17.74 6.71 19.16 7.27 C23.11 8.83 27.06 10.41 31 12 C32.02 12.41 33.03 12.82 34.08 13.23 C47.71 18.71 47.71 18.71 49 20 C48.62 25.01 48.11 26.85 45 31 C40 30 40 30 35.38 28.12 C33.93 27.75 32.49 27.38 31 27 C28 32 28 32 29 36 C29.69 36.58 29.69 36.58 33.19 39.5 C33.82 40.08 33.82 40.08 37 43 C34.98 47.05 33.77 48.64 30 51 C19.97 48.99 12.68 38.76 5.64 31.6 C1.56 27.59 -2.7 23.78 -6.94 19.94 C-14 13.16 -14 13.16 -14 8.56 C-11.46 -0.47 -9.21 -1.76 0 0 Z M6 15 C8.5 20.01 12 23.13 16 27 C17.32 25.68 18.64 24.36 20 23 C18.58 18.74 16.56 18.79 12.44 17.31 C11.24 16.88 10.04 16.44 8.81 15.99 C7.88 15.66 6.95 15.34 6 15 Z " fill="#000000" transform="translate(138,215)"/>
<path d="M0 0 C2.9 4.04 5.49 8 7.74 12.43 C10.35 16.55 13.09 18.75 17 21.62 C26.01 28.29 29.78 32.44 29 44 C25.58 49.96 20.5 51.09 14 52 C15.32 53.32 16.64 54.64 18 56 C18 57.98 18 59.96 18 62 C16.67 60 15.33 58 14 56 C9.64 56.18 8.49 56.27 6 60 C5.66 66.66 5.66 66.66 7 68 C13 68 13 68 16 66 C15.01 70.95 14.02 75.9 13 81 C11 78 11 78 9 73 C8.34 73 7.68 73 7 73 C7.52 74.38 8.03 75.76 8.56 77.19 C10 82 10 82 9 87 C8.34 87 7.68 87 7 87 C6.86 88.34 6.71 89.68 6.56 91.06 C5.95 96.41 4.37 100.25 2 105 C0 105 0 105 -2 102 C-2.82 103.38 -3.65 104.76 -4.5 106.19 C-8.05 111.06 -10.6 113.43 -16 116 C-17.65 115.67 -19.3 115.34 -21 115 C-21 114.34 -21 113.68 -21 113 C-21.64 113.39 -21.64 113.39 -24.88 115.38 C-30.01 118 -34.33 119.12 -40 120 C-37.75 122.62 -37.75 122.62 -35 125 C-31 123 -31 123 -28 120.5 C-24.11 118.07 -22.44 117.6 -18.06 117.06 C-10.93 116.13 -6.04 113.06 -2 107 C-1.18 106.84 -1.18 106.84 3 106 C4.65 105.01 6.3 104.02 8 103 C9.32 103 10.64 103 12 103 C12.51 109.8 12.53 112.8 7 117 C2.52 118.33 2.52 118.33 -2.62 119.25 C-4.41 119.58 -6.19 119.91 -8.03 120.25 C-11.81 120.82 -15.38 121.19 -19.19 121.31 C-24.13 122.02 -25.24 122.64 -28.88 125.69 C-30.24 126.78 -31.6 127.87 -33 129 C-40.46 126.02 -43.66 120.51 -48 114 C-48.66 113.67 -49.32 113.34 -50 113 C-50 112.34 -50 111.68 -50 111 C-51.32 111.33 -52.64 111.66 -54 112 C-58.48 109.76 -59.58 106.83 -61.12 102.31 C-63 97 -63 97 -66 96 C-68.21 89.36 -66.65 84.3 -64 78 C-64.76 78.8 -65.53 79.61 -66.31 80.44 C-69 83 -69 83 -72 84 C-72.66 83.01 -73.32 82.02 -74 81 C-77.12 81.06 -77.12 81.06 -80 82 C-80 86 -80 86 -77.56 88.38 C-74.24 91.78 -74 94.39 -74 99 C-72.45 99.54 -70.91 100.07 -69.31 100.62 C-63.28 103.32 -62.06 105.33 -59 111 C-55 114 -55 114 -50 115 C-49.34 116.32 -48.68 117.64 -48 119 C-55.09 118.5 -61.55 116.88 -68.35 114.94 C-75.56 113.08 -75.56 113.08 -79 113 C-81.06 117.75 -81.06 117.75 -81 123 C-77.42 124.79 -74.9 125.3 -71 126 C-67.62 126.86 -64.25 127.74 -60.88 128.62 C-49.44 131.53 -38.94 132.16 -27.19 132.12 C-25.79 132.13 -24.39 132.13 -22.95 132.14 C-15.23 132.13 -7.68 131.84 0 131 C-8.06 146.15 -8.06 146.15 -14.69 148.06 C-15.4 148.05 -15.4 148.05 -19 148 C-20.73 148.06 -22.47 148.12 -24.25 148.19 C-43.1 147.95 -60.96 144.26 -79 139 C-78.53 140.73 -78.05 142.47 -77.56 144.25 C-77.3 145.22 -77.03 146.2 -76.75 147.2 C-72.56 153.89 -63.29 154.81 -56.06 156.19 C-55.23 156.35 -55.23 156.35 -51.04 157.17 C-41.76 158.7 -32.75 159.14 -23.38 159.06 C-22.28 159.06 -21.18 159.05 -20.04 159.05 C-17.36 159.04 -14.68 159.02 -12 159 C-12.45 159.85 -12.91 160.69 -13.38 161.56 C-15 165 -15 165 -15.59 168.84 C-17 172 -17 172 -21.16 172.79 C-37.47 172.29 -52.64 170.71 -68 165 C-59.34 180.41 -33.27 178.46 -18 179 C-18.33 179.99 -18.66 180.98 -19 182 C-23.47 182.29 -23.47 182.29 -29.06 182.19 C-29.99 182.17 -29.99 182.17 -34.66 182.11 C-36.09 182.07 -37.52 182.04 -39 182 C-39.83 186.47 -40.3 189.96 -38 194 C-31.14 195.77 -24.88 195.64 -18 194 C-15.88 189 -15.88 189 -16 184 C-15.34 184 -14.68 184 -14 184 C-14 186.97 -14 189.94 -14 193 C-5.78 192.22 -5.78 192.22 -2 191 C-0.42 187.08 -0.85 184.78 -1.62 180.69 C-1.75 179.8 -1.87 178.91 -2 178 C1.62 175.59 4.77 174.98 9 174 C10.42 173.44 11.85 172.89 13.31 172.31 C14.53 172.21 15.75 172.11 17 172 C18.63 176.31 18.63 176.31 20 181 C23.19 182.06 23.19 182.06 26 182 C22.39 175.98 19.77 172.95 13.56 169.62 C8.79 166.88 6.1 164.53 3 160 C3 153.56 4 151.52 7 146 C7.92 144.17 8.84 142.34 9.75 140.5 C10.49 139.01 11.24 137.53 12 136 C11.01 136 10.02 136 9 136 C8.31 137.99 7.64 139.99 7 142 C6.01 142.66 5.02 143.32 4 144 C-4.66 161.68 -4.66 161.68 -2 167 C-1.4 174.4 -1.4 174.4 -6 179 C-11.36 182 -11.36 182 -14 182 C-14.41 173.17 -14.58 166.81 -10 159 C-9.3 156.01 -8.64 153.01 -8 150 C-5.55 143.18 -5.55 143.18 -2 142 C-1.61 140.01 -1.28 138.01 -1 136 C1 133 1 133 3 133 C3 131.35 3 129.7 3 128 C7 124 7 124 9 124 C9.35 121.67 9.68 119.34 10 117 C12 114 12 114 14 114 C14.14 112.27 14.29 110.53 14.44 108.75 C15 103 15 103 18 99 C18.28 95.84 18.28 95.84 18.15 92.14 C18.12 90.8 18.1 89.45 18.07 88.07 C17.98 85.25 17.89 82.43 17.79 79.62 C17.51 65.23 21.78 56.49 33.44 47.62 C43.32 41.94 51.22 42.49 62 45 C63.34 45.1 64.68 45.21 66.06 45.31 C75.35 46.93 81.12 53.3 85.88 61.06 C88.48 70.17 87.53 78.33 84 87 C84.66 88.32 85.32 89.64 86 91 C86.38 97.58 86.49 102.32 83 108 C83 108.66 83 109.32 83 110 C84.36 110.23 85.72 110.45 87.12 110.69 C92.95 112.26 94.44 114.28 98 119 C99.32 119.99 100.64 120.98 102 122 C102 122.66 102 123.32 102 124 C102.66 123.67 103.32 123.34 104 123 C103.99 122.39 103.99 122.39 103.94 119.31 C105.54 112.82 109.87 111.03 116 109 C120.5 109.38 120.5 109.38 124 110 C127.57 105.23 126.99 102.79 126.87 97.04 C127.21 89.15 131.85 84.38 138 80 C144.86 77.15 152.31 76.66 159 80 C159.45 85.63 157.96 87.03 153.88 91 C150 95 150 95 149.94 98.94 C151 102 151 102 152 103 C158.36 103 159.17 100.95 162.94 96.16 C165 94 165 94 170 92 C174.58 95.06 174.94 98.4 175.5 103.69 C174.62 113.07 170.05 119.29 162 124 C155.86 126.05 149.25 125.25 143 124 C139.69 124.31 139.69 124.31 137 126 C136.81 130.75 136.81 130.75 137 136 C135.66 139.4 134.57 141.43 132 144 C131.65 145.22 131.3 146.43 130.94 147.69 C128.4 153.33 125.04 155.51 120 159 C118.89 159.78 117.77 160.57 116.62 161.38 C110.49 165.17 103.13 165.15 96.44 162.69 C94 161 94 161 92 158 C86.76 158.11 85.91 159.09 82 163 C81.67 164.65 81.34 166.3 81 168 C82.65 168.66 84.3 169.32 86 170 C86.33 171.32 86.66 172.64 87 174 C87.66 174 88.32 174 89 174 C89.33 172.35 89.66 170.7 90 169 C90.66 168.01 91.32 167.02 92 166 C93.65 166.33 95.3 166.66 97 167 C97.33 167.99 97.66 168.98 98 170 C98.99 169.01 99.98 168.02 101 167 C105 171 105 171 105 176 C104.15 176.66 103.31 177.32 102.44 178 C101.63 178.66 100.83 179.32 100 180 C100.74 183.68 101.56 187.25 102.5 190.88 C105.53 203.11 105.53 203.11 102 209 C101.5 209.33 101.5 209.33 99 211 C100.26 216.87 103.65 221.84 106.64 226.98 C108 230 108 230 107 234 C103.62 234.83 103.62 234.83 99.44 235.25 C98.75 235.32 98.75 235.32 95.25 235.7 C94.17 235.8 93.1 235.9 92 236 C97.45 264.27 97.45 264.27 109 274 C112.09 276.93 114.59 279.78 117.19 283.19 C121.74 287.74 124.79 287.98 131 289 C131 290.32 131 291.64 131 293 C128.56 294.12 128.56 294.12 125 295 C123.64 295.35 122.28 295.7 120.88 296.06 C87.43 302.49 50.29 299.82 16.62 296.56 C15.33 296.44 14.03 296.32 12.7 296.19 C11.49 296.07 10.28 295.94 9.04 295.82 C7.97 295.71 6.9 295.6 5.8 295.49 C3 295 3 295 -1 293 C-4.83 292.7 -8.6 292.53 -12.44 292.44 C-13.66 292.4 -14.87 292.37 -16.13 292.33 C-20.75 292.21 -25.38 292.1 -30 292 C-32.11 291.95 -34.21 291.9 -36.32 291.85 C-42.15 291.71 -47.99 291.58 -53.82 291.45 C-56.17 291.4 -58.52 291.35 -60.87 291.29 C-84.18 290.77 -84.18 290.77 -94.55 291.96 C-98 292 -98 292 -103.22 291.05 C-108.96 290.01 -114.26 289.71 -120.09 289.66 C-120.6 289.65 -120.6 289.65 -123.19 289.61 C-126.44 289.57 -129.69 289.53 -132.94 289.5 C-172.73 289.11 -172.73 289.11 -183 285 C-183 284.01 -183 283.02 -183 282 C-170.34 278.88 -156.99 278.43 -144 278 C-145.22 277.9 -146.44 277.8 -147.7 277.7 C-163.42 276.27 -185.89 273.22 -194 257 C-198 258 -198 258 -202 261 C-204.69 257.41 -205.79 255.22 -207.12 251.06 C-207.46 250.04 -207.79 249.02 -208.13 247.97 C-209.81 242.24 -210.16 237 -210.19 231.06 C-210.2 229.51 -210.22 227.95 -210.23 226.35 C-210.02 222.44 -209.46 219.6 -208 216 C-207.56 216.38 -207.56 216.38 -205.31 218.31 C-203.89 219.53 -202.47 220.75 -201 222 C-200.01 222.86 -199.01 223.72 -197.99 224.6 C-192.87 229 -187.8 233.24 -182.19 237 C-178 240 -178 240 -178 243 C-179.65 243.66 -181.3 244.32 -183 245 C-183 247 -183 247 -179 249.5 C-170.87 253.57 -163.32 256.04 -154.94 251.25 C-149.4 241.96 -155.96 225.48 -158.31 215.69 C-158.51 214.85 -158.51 214.85 -159.5 210.63 C-161.67 201.43 -163.92 192.26 -166.29 183.1 C-167 180 -167 180 -167 177 C-176.5 179.62 -176.5 179.62 -181 183 C-187 183 -187 183 -191 180 C-192.58 174.32 -192.18 173.3 -189 168 C-186.19 167.31 -186.19 167.31 -183 167 C-179.4 165.92 -176.37 164.69 -173 163 C-173 158.94 -173 158.94 -174 155 C-175.32 154.67 -176.64 154.34 -178 154 C-182 151 -182 151 -182 149 C-183.18 148.79 -184.35 148.59 -185.56 148.38 C-191.46 146.55 -193.57 144.08 -197 139 C-197.65 133.55 -197.45 130.91 -195 126 C-194.34 126 -193.68 126 -193 126 C-193.03 125.31 -193.03 125.31 -193.19 121.81 C-193 117 -193 117 -190 112 C-189.35 111.68 -189.35 111.68 -186.06 110.06 C-181.69 107.84 -180.4 106.15 -178 102 C-172.07 99.03 -166.56 100.13 -161.07 103.2 C-158.31 105.03 -155.56 106.86 -152.8 108.7 C-146.35 112.61 -141.59 112.91 -134.56 110.44 C-130 109 -130 109 -124.19 110.31 C-122.48 110.54 -120.76 110.77 -119 111 C-116.62 107.38 -116.62 107.38 -115 103 C-113.36 101.64 -111.69 100.3 -110 99 C-109.61 97.97 -109.22 96.94 -108.81 95.88 C-107 93 -107 93 -102.44 92.19 C-96.1 90.8 -93.89 88.65 -89.38 84.26 C-81.76 77.03 -74.17 74.92 -64 74 C-64.33 72.35 -64.66 70.7 -65 69 C-63.34 67.66 -61.67 66.33 -60 65 C-58.25 60.81 -58.25 60.81 -57 57 C-56.67 56.67 -56.34 56.34 -56 56 C-55.46 52.51 -55.03 49.02 -54.6 45.52 C-54 42 -54 42 -52 37 C-52.85 36.77 -53.69 36.55 -54.56 36.31 C-61 33.85 -64.42 31.45 -67 25 C-66 20 -66 20 -62 17 C-57.24 15.81 -52.89 15.94 -48 16 C-48.25 15.54 -48.25 15.54 -49.5 13.19 C-52.33 5.28 -52.44 -2.34 -47 -9 C-30.2 -18.98 -13.29 -12.79 0 0 Z M-46 -5 C-49.54 2.07 -48.52 8.1 -45 15 C-43.68 14.34 -42.36 13.68 -41 13 C-31.26 8.13 -18.85 13.32 -9.75 18.13 C0.43 25.05 11.08 34.27 13.81 46.69 C14.2 47.45 14.6 48.21 15 49 C20.75 48.45 22.48 47.69 26 43 C26.84 35.55 24.98 31.75 19.56 26.75 C17 25 17 25 12 23 C11.67 23.33 11.34 23.66 11 24 C10.63 23.34 10.63 23.34 8.73 20.02 C7.74 18.28 6.75 16.55 5.75 14.81 C4.78 13.11 3.8 11.4 2.8 9.64 C-6.65 -6.05 -29.31 -19.55 -46 -5 Z M-41 16 C-39.82 16.37 -38.65 16.74 -37.44 17.12 C-26.51 20.89 -16.74 24.59 -7.49 31.66 C-5 33 -5 33 -1 31 C-3.31 21.76 -12.92 18.29 -21 15 C-21.5 14.78 -21.5 14.78 -24 13.69 C-30.3 12.24 -36.27 11.27 -41 16 Z M-62 21 C-62 21.33 -62 21.66 -62 22 C-60.69 21.95 -59.39 21.91 -58.04 21.86 C-45.75 21.61 -34.85 22.76 -23 26 C-25.88 20.23 -37.8 19.1 -43.57 18.61 C-55.92 18.49 -55.92 18.49 -62 21 Z M-45 32 C-44.05 32.41 -43.1 32.82 -42.12 33.25 C-39 35 -39 35 -37 39 C-37.66 39 -38.32 39 -39 39 C-39.33 38.01 -39.66 37.02 -40 36 C-45 35.44 -46.34 35.34 -50 39 C-52.22 44.56 -52.36 48.91 -52.56 54.82 C-53 58 -53 58 -56 61 C-56 61.66 -56 62.32 -56 63 C-52.06 64.06 -52.06 64.06 -48 64 C-46.56 59.95 -47.01 56.17 -47.06 51.88 C-47 47 -47 47 -45 42 C-43.35 41.67 -41.7 41.34 -40 41 C-39.25 44.88 -39.25 44.88 -39 49 C-39.66 49.33 -39.66 49.33 -43 51 C-42.01 51.33 -41.02 51.66 -40 52 C-39.67 53.65 -39.34 55.3 -39 57 C-38.67 57.33 -38.34 57.66 -38 58 C-38.97 58.21 -39.94 58.41 -40.94 58.62 C-44 60 -44 60 -45.19 62.81 C-44.92 67.33 -43.78 68.58 -40 71 C-35.25 70.42 -31.99 69.66 -28 67 C-28 66.34 -28 65.68 -28 65 C-28.5 64.84 -28.5 64.84 -31 64 C-30.01 64 -29.02 64 -28 64 C-27.34 65.32 -26.68 66.64 -26 68 C-23.26 67.34 -20.52 66.66 -17.82 65.81 C-12.55 64.3 -8.31 64.94 -3 66 C0.26 59.48 0.06 54.05 -1 47 C-0.67 45.35 -0.34 43.7 0 42 C-3.22 36.63 -4.4 36.01 -10 34 C-10.33 35.65 -10.66 37.3 -11 39 C-11.72 38.34 -12.44 37.68 -13.19 37 C-16 35 -16 35 -21 35 C-23.81 37 -23.81 37 -26 39 C-25.34 37.89 -24.68 36.77 -24 35.62 C-22 32 -22 32 -22 30 C-23.9 30.21 -25.8 30.41 -27.75 30.62 C-32.35 31.13 -33.71 31.15 -38 29 C-43 29 -43 29 -45 32 Z M-1 32 C-0.67 33.65 -0.34 35.3 0 37 C0.99 37 1.98 37 3 37 C3.33 35.68 3.66 34.36 4 33 C2.35 32.67 0.7 32.34 -1 32 Z M5 36 C4.34 37.32 3.68 38.64 3 40 C6.25 44.81 6.25 44.81 10 49 C10.66 48.67 11.32 48.34 12 48 C11.8 42.76 10.72 39.72 7 36 C6.34 36 5.68 36 5 36 Z M27.56 58.12 C26 61 26 61 27 63 C27.66 62.01 28.32 61.02 29 60 C30.65 59.67 32.3 59.34 34 59 C35.32 58.01 36.64 57.02 38 56 C37.34 56 36.68 56 36 56 C36.66 54.35 37.32 52.7 38 51 C33.39 51 30.21 54.73 27.56 58.12 Z M74 54 C74 59 74 59 77 61 C77 60.34 77 59.68 77 59 C77.99 59.33 78.98 59.66 80 60 C79 56 79 56 74 54 Z M42 56 C38.94 58.25 38.94 58.25 36 61 C37 65 37 65 38 67 C42 65 42 65 47 62 C45 61 45 61 40 63 C40.99 61.35 41.98 59.7 43 58 C42.67 57.34 42.34 56.68 42 56 Z M59.28 60.27 C55.55 64.51 52.73 65.7 47.5 67.69 C39.22 71.35 35.24 75.14 33 84 C33 85.65 33 87.3 33 89 C31.68 87.68 30.36 86.36 29 85 C24.59 85.09 23.5 85.25 21 89 C21.35 95.56 21.35 95.56 25 98 C25.56 97.92 25.56 97.92 28.38 97.5 C33.57 98.22 33.57 100.83 35.5 105.32 C40.69 114.58 51.12 117.02 60.94 117.44 C71.34 117.25 76.46 112.57 82 104 C84.39 99.01 83.91 95.39 83 90 C82.43 86.42 81.99 83.25 82.19 79.62 C81.62 68.74 74.53 62.69 66 57 C62 57 62 57 59.28 60.27 Z M42 66 C46.29 67.43 47.52 65.55 51 63 C47.52 61.26 45.06 64.13 42 66 Z M-10 72 C-9.67 74.31 -9.34 76.62 -9 79 C-8.34 78.67 -7.68 78.34 -7 78 C-7 76.35 -7 74.7 -7 73 C-7.99 72.67 -8.98 72.34 -10 72 Z M-19 76 C-19.06 81.12 -19.06 81.12 -18 86 C-14 87 -14 87 -10 83 C-10.06 78.31 -10.06 78.31 -11 74 C-14 73 -14 73 -19 76 Z M-51 75 C-52 80 -52 80 -49 85 C-47.68 85.33 -46.36 85.66 -45 86 C-43.5 79.5 -43.5 79.5 -48 75 C-48.99 75 -49.98 75 -51 75 Z M-43 79 C-43.38 83.5 -43.38 83.5 -43 88 C-39.31 90.46 -36.37 90.57 -32 91 C-31.88 80.25 -31.88 80.25 -33 78 C-39.38 76.58 -39.38 76.58 -43 79 Z M-31 79 C-31.44 84.62 -31.44 84.62 -31 90 C-22.38 90.25 -22.38 90.25 -19 88 C-19.62 82.38 -19.62 82.38 -21 77 C-24.99 77 -27.4 77.17 -31 79 Z M132.06 90.62 C129.91 96.24 129.84 100.06 130 106 C127 111 127 111 124 113 C124 113.66 124 114.32 124 115 C125.65 114.34 127.3 113.68 129 113 C130.99 112.62 132.99 112.28 135 112 C134.34 114.97 133.68 117.94 133 121 C138.88 119.12 138.88 119.12 140 118 C142.52 118.03 145.04 118.1 147.56 118.19 C156.44 118.23 163 116.89 168 109 C169.87 104.31 170.19 101.89 170 97 C165.45 98.14 164.68 99.19 161.69 102.62 C157.49 106.98 157.49 106.98 153.19 107.12 C152.14 106.75 151.08 106.38 150 106 C148.68 105.67 147.36 105.34 146 105 C141.57 97.07 141.57 97.07 144 91 C146.16 88.8 146.16 88.8 148.62 86.75 C153 83 153 83 153 82 C142.87 81.5 137.67 81.79 132.06 90.62 Z M148.31 88.19 C147.3 89.15 146.28 90.11 145.24 91.11 C143 94 143 94 144 99 C144.99 100.65 145.98 102.3 147 104 C148 102 148 102 146 98 C147.31 92.74 150.18 90.75 154 87 C154.66 85.68 155.32 84.36 156 83 C152.52 83 150.71 85.86 148.31 88.19 Z M-94 93 C-94 95 -94 95 -93 96 C-93.82 95.67 -93.82 95.67 -98 94 C-103 95 -103 95 -104 97 C-103.42 97.26 -103.42 97.26 -100.5 98.56 C-93.44 102.39 -88.07 107.04 -84 114 C-80.41 106.82 -78.65 103.16 -83.12 96 C-89.16 89.77 -89.16 89.77 -94 93 Z M-115 110 C-114 114.99 -113.11 116.29 -110 120 C-110 120.66 -110 121.32 -110 122 C-111.2 120.89 -112.39 119.77 -113.62 118.62 C-120.77 112.7 -126.12 112.11 -135.12 113.75 C-136.07 114.49 -137.02 115.24 -138 116 C-136.94 121.56 -136.94 121.56 -135.93 124.81 C-133.15 134.37 -135.67 143.33 -140 152 C-138.35 152.99 -136.7 153.98 -135 155 C-134.01 156.65 -133.02 158.3 -132 160 C-121.72 163.43 -110.59 160.11 -101 156 C-99.68 154.68 -98.36 153.36 -97 152 C-95.56 151.4 -94.11 150.8 -92.62 150.19 C-87.32 147.68 -85.19 145.92 -82 141 C-81.89 136.69 -82.09 133.31 -82.75 129.12 C-82.87 128.09 -82.99 127.05 -83.11 125.98 C-84.63 115.13 -90.05 107.38 -99 101 C-107.7 99.57 -110.7 102.83 -115 110 Z M-179 109 C-179.88 116.81 -178.51 121.49 -173 127 C-168.62 125.54 -167.94 123.07 -166 119 C-166 117.02 -166 115.04 -166 113 C-165.34 113.66 -164.68 114.32 -164 115 C-163.18 115.16 -163.18 115.16 -159 116 C-159.72 116.47 -160.44 116.95 -161.19 117.44 C-166.52 122.29 -169.43 126.84 -168 134 C-166 136 -166 136 -163.12 135.88 C-158.11 134.47 -156.25 131.5 -154 127 C-153.66 135.68 -154.02 142.81 -157 151 C-150.27 151 -148.59 148.38 -145 143 C-147 148 -147 148 -150 151 C-150 151.66 -150 152.32 -150 153 C-143.04 151.91 -141.19 149.1 -138 143 C-135.39 135.17 -136.06 125.2 -140 118 C-141.65 117.01 -143.3 116.02 -145 115 C-144.84 115.51 -144.84 115.51 -144 118.06 C-143.03 121.9 -142.84 125.07 -143 129 C-143.23 127.64 -143.45 126.28 -143.69 124.88 C-145.9 116.67 -150.5 113.32 -157.69 109.19 C-158.35 108.8 -158.35 108.8 -161.7 106.86 C-168.4 103.09 -174.16 101.82 -179 109 Z M18 104 C17.25 107.5 17.25 107.5 17 111 C21 109 21 109 22 104 C20.68 104 19.36 104 18 104 Z M170 104 C169.61 105.22 169.22 106.43 168.81 107.69 C165.99 114.41 161.91 117.18 155 119 C151.17 119.09 147.39 118.94 143.56 118.78 C140 119 140 119 135 122 C137 123 137 123 140.38 122 C144 121 144 121 148 122 C155.93 122.58 161.75 121.42 167.38 115.5 C170.13 111.27 171 109.16 171 104 C170.67 104 170.34 104 170 104 Z M29 109 C27.68 109.33 26.36 109.66 25 110 C25 110.99 25 111.98 25 113 C26.65 112.34 28.3 111.68 30 111 C29.67 110.34 29.34 109.68 29 109 Z M30 115 C29.67 115.16 29.67 115.16 28 116 C28 116.66 28 117.32 28 118 C40.59 122.06 40.59 122.06 46 118 C36.55 108.29 36.55 108.29 30 115 Z M80 111 C76.69 113.45 73.9 116.1 71 119 C72.32 119 73.64 119 75 119 C75.99 120.65 76.98 122.3 78 124 C79.32 124.33 80.64 124.66 82 125 C85.62 118.97 85.62 118.97 84 114 C82.68 113.01 81.36 112.02 80 111 Z M-188.31 114.94 C-190.81 119.47 -190.26 122.03 -189 127 C-182.41 136.3 -182.41 136.3 -176 136 C-174 134 -174 134 -175 129 C-175.8 127.74 -176.61 126.48 -177.44 125.19 C-180 121 -180 121 -181.06 116.5 C-181.37 115.35 -181.68 114.19 -182 113 C-186 113 -186 113 -188.31 114.94 Z M107 118 C107 118.66 107 119.32 107 120 C110.44 119.69 110.44 119.69 114 119 C114.33 118.01 114.66 117.02 115 116 C116.32 115.34 117.64 114.68 119 114 C119 113.67 119 113.34 119 113 C112.42 113 111.43 113.57 107 118 Z M130 113 C129.67 114.32 129.34 115.64 129 117 C130.32 117.33 131.64 117.66 133 118 C133.33 116.68 133.66 115.36 134 114 C132.68 113.67 131.36 113.34 130 113 Z M86 114 C85.86 115.57 85.71 117.13 85.56 118.75 C85 124 85 124 84 128 C85 129 85 129 90 129 C93.46 124.38 93.89 122.62 93 117 C89.5 115 89.5 115 86 114 Z M117 119 C121 122 121 122 123 122 C123 122.99 123 123.98 123 125 C122.3 124.34 121.6 123.68 120.88 123 C118 121 118 121 112 121 C110 123 110 123 110 126 C111.96 127.39 113.96 128.73 116 130 C116 130.33 116 130.66 116 131 C115.28 130.34 114.56 129.68 113.81 129 C111 127 111 127 106 127 C103.53 133.18 104.4 133.02 108 138 C108 140.5 107.93 143 107.75 145.5 C108 149 108 149 112 153 C118.24 153.62 120.51 153.29 126 150 C126.33 149.01 126.66 148.02 127 147 C124.03 147.66 121.06 148.32 118 149 C118 148.34 118 147.68 118 147 C119.05 146.88 120.1 146.75 121.19 146.62 C127.65 145.57 131.08 141.73 134 136 C134.93 128.74 133.53 124.71 129 119 C123.97 115.78 121.48 114.52 117 119 Z M13 118 C13 121 13 121 13 121 Z M49 119 C49.44 124.69 49.73 125.73 54 130 C61.18 131.55 61.18 131.55 65 129 C65.33 127.68 65.66 126.36 66 125 C65.01 125 64.02 125 63 125 C63 124.34 63 123.68 63 123 C58.37 121.48 53.73 120.18 49 119 Z M14 131 C14 132.98 14 134.96 14 137 C18 136 18 136 19 133 C19.66 134.65 20.32 136.3 21 138 C22.65 137.67 24.3 137.34 26 137 C26.33 137 26.66 137 27 137 C26.77 137.97 26.55 138.94 26.31 139.94 C26.26 140.44 26.26 140.44 26 143 C29 144 29 144 30 144 C30 145.32 30 146.64 30 148 C35.74 147.74 37.39 146.03 40 141 C40 140.01 40 139.02 40 138 C40.66 138 41.32 138 42 138 C40.89 142.51 40.35 144.65 37 148 C38 153 38 153 41 157 C47.33 157.67 47.33 157.67 50 155 C49.67 154.67 49.34 154.34 49 154 C50.55 154.23 52.09 154.45 53.69 154.69 C59 155 59 155 64 152 C64 150.35 64 148.7 64 147 C65.65 147.33 67.3 147.66 69 148 C77.41 143.18 77.41 143.18 80 138 C80 137.01 80 136.02 80 135 C80.99 135.99 81.98 136.98 83 138 C86.19 136.31 86.19 136.31 89 134 C89 133.34 89 132.68 89 132 C87.35 131.67 85.7 131.34 84 131 C83.01 129.68 82.02 128.36 81 127 C79.35 126.01 77.7 125.02 76 124 C75.34 123.01 74.68 122.02 74 121 C73.01 121.33 72.02 121.66 71 122 C71.65 124.34 72.32 126.67 73 129 C72.94 132.88 72.94 132.88 72 136 C67 137 67 137 64 134 C60 136 60 136 55 139 C49.23 137.41 48.18 136.31 45 131 C44.65 129.41 44.3 127.82 43.94 126.19 C43.78 125.5 43.78 125.5 43 122 C42.34 122 41.68 122 41 122 C40.67 122.99 40.34 123.98 40 125 C39.59 124.67 39.59 124.67 37.5 123 C28.54 117.88 18.38 121.88 14 131 Z M96 121 C94.6 124.3 93.26 127.64 92 131 C96 129 96 129 100 126 C99.34 124.35 98.68 122.7 98 121 C97.34 121 96.68 121 96 121 Z M45 122 C45.3 128.59 45.89 132.57 51 137 C57 137 57 137 60 133 C58.6 132.48 57.19 131.97 55.75 131.44 C50.58 128.78 49.45 127.09 47 122 C46.34 122 45.68 122 45 122 Z M67 124 C66.86 124.93 66.71 125.86 66.56 126.81 C66 130 66 130 65 133 C67 135 67 135 72 134 C72.06 130.06 72.06 130.06 71 126 C69.68 125.34 68.36 124.68 67 124 Z M106 124 C105.67 124.66 105.34 125.32 105 126 C105.66 126 106.32 126 107 126 C106.67 125.34 106.34 124.68 106 124 Z M-194 130 C-194.52 135.53 -194 137.01 -191 142 C-186.84 144.62 -185.06 145 -180 145 C-178 143 -178 143 -178 139 C-180.64 137.3 -183.31 135.64 -186 134 C-187.73 132.05 -189.41 130.07 -191 128 C-192 128 -192 128 -194 130 Z M7 128 C6.67 129.32 6.34 130.64 6 132 C6.66 130.68 7.32 129.36 8 128 C7.67 128 7.34 128 7 128 Z M89 136 C86.83 137.52 84.67 139.04 82.5 140.56 C57.93 158.15 57.93 158.15 56 162 C56.99 161.84 56.99 161.84 62 161 C61.34 161.66 60.68 162.32 60 163 C60 163.99 60 164.98 60 166 C65.63 167.41 66.72 165.34 71.19 161.81 C78.37 156.24 85.69 150.96 93.16 145.79 C96.99 143.01 100.63 140.32 104 137 C103.83 136.34 103.83 136.34 103 133 C101.35 133.33 99.7 133.66 98 134 C99.32 132.68 100.64 131.36 102 130 C96.84 128.28 93.07 132.99 89 136 Z M-172 136 C-174 138 -174 138 -174 142 C-168.81 144.54 -168.81 144.54 -165 142 C-167 138 -167 138 -172 136 Z M-162 139 C-162.66 140.65 -163.32 142.3 -164 144 C-168.31 144.75 -168.31 144.75 -173 145 C-174.65 145.33 -176.3 145.66 -178 146 C-178 147.32 -178 148.64 -178 150 C-177.07 150.41 -176.14 150.82 -175.19 151.25 C-170.77 153.68 -170.31 156.25 -169 161 C-169 165 -169 165 -171.52 166.48 C-172.61 166.9 -173.69 167.32 -174.81 167.75 C-175.89 168.18 -176.97 168.61 -178.08 169.05 C-181 170 -181 170 -184 170 C-188 172 -188 172 -189 175 C-188.5 175.82 -188.5 175.82 -186 180 C-181.84 179.17 -178.72 178.16 -174.88 176.5 C-171.93 175.23 -169.04 174.01 -166 173 C-161.55 189.16 -157.32 205.36 -153.5 221.69 C-153.15 223.15 -152.8 224.6 -152.44 226.11 C-147.94 245.65 -147.94 245.65 -152.19 252.56 C-158.53 258.06 -164.15 257.66 -171.88 255.88 C-179.61 253.05 -184.73 250.12 -189 243 C-188.01 242.88 -187.02 242.75 -186 242.62 C-185.5 242.52 -185.5 242.52 -183 242 C-183 238.42 -186.81 237.19 -189.56 235.31 C-194.91 231.58 -199.48 227.72 -204 223 C-204.66 223 -205.32 223 -206 223 C-209.34 233.02 -206.62 245.77 -202 255 C-198 253 -198 253 -196 251 C-193.24 253.76 -190.52 256.51 -187.88 259.38 C-176.59 269.93 -165.84 272.47 -150.75 273.94 C-144.09 274.6 -138.98 275.85 -133 279 C-130 279 -130 279 -127.06 274.56 C-119.43 261.14 -119.43 261.14 -121 258 C-121.66 258.5 -121.66 258.5 -125 261 C-122.19 258.33 -119.38 255.66 -116.56 253 C-115.76 252.24 -114.96 251.47 -114.13 250.69 C-108.11 245 -108.11 245 -107 245 C-107.82 245.99 -107.82 245.99 -112 251 C-103.51 249.83 -100.21 246.04 -96.81 238.3 C-94.05 230.71 -92.9 223 -92 215 C-90.02 215.99 -88.04 216.98 -86 218 C-86.46 206.54 -89.37 195.87 -97 187 C-97.66 187 -98.32 187 -99 187 C-100.08 189.78 -101.03 192.6 -101.94 195.44 C-102.44 197 -102.95 198.57 -103.46 200.18 C-103.97 201.77 -104.48 203.36 -105 205 C-106 208 -106.99 211 -108 214 C-105.69 214 -103.38 214 -101 214 C-102.55 224.17 -107.01 235.28 -116 241 C-121.11 242.7 -126.16 243.42 -130.58 240.01 C-133.54 236.34 -134.82 232.95 -136.38 228.5 C-136.67 227.65 -136.67 227.65 -138.18 223.36 C-138.78 221.59 -139.38 219.82 -140 218 C-140.58 216.33 -141.16 214.65 -141.76 212.93 C-146.68 198.47 -151.29 183.82 -155 169 C-151.3 167.8 -147.78 166.84 -144 166 C-137.12 164.12 -137.12 164.12 -136 163 C-136 157 -136 157 -138 155 C-142 156 -142 156 -145 159 C-147.66 159.39 -150.33 159.72 -153 160 C-155.01 160.63 -157.01 161.29 -159 162 C-159.25 159.92 -159.47 157.83 -159.69 155.75 C-159.82 154.59 -159.94 153.43 -160.07 152.23 C-160 149 -160 149 -157 145 C-156.31 140.75 -156.31 140.75 -156 137 C-159 137 -159 137 -162 139 Z M1 137 C1.33 137.99 1.66 138.98 2 140 C2.33 139.01 2.66 138.02 3 137 C2.34 137 1.68 137 1 137 Z M14 138 C13.67 138.99 13.34 139.98 13 141 C13.61 141.23 13.61 141.23 16.69 142.38 C21.16 144.06 22.34 145.22 25 149 C25.66 149 26.32 149 27 149 C25.73 143.56 23.64 141.09 19 138 C17.35 138 15.7 138 14 138 Z M97.44 143.12 C90.53 148.62 83.43 153.78 76.26 158.92 C75.56 159.43 75.56 159.43 72 162 C70.5 163.08 69 164.16 67.46 165.27 C64 168 64 168 64 170 C69.08 168.73 72.03 166.29 76.25 163.19 C77.85 162.02 79.44 160.85 81.09 159.64 C82.72 158.43 84.36 157.21 86 156 C87.52 154.88 89.04 153.76 90.6 152.61 C101.42 144.58 101.42 144.58 106 140 C101.66 138.55 100.9 140.31 97.44 143.12 Z M5 155 C6.53 162.67 11.07 165.72 18 169 C23.54 167.62 24.32 164.85 27 160 C27 159.34 27 158.68 27 158 C24.37 156.6 21.7 155.27 19 154 C20.32 153.67 21.64 153.34 23 153 C22.9 148.51 22.25 147.25 19 144 C10.37 142.56 7.94 147.64 5 155 Z M-88.69 151.26 C-91.31 153.23 -94.04 154.59 -97 156 C-97.76 156.68 -98.53 157.36 -99.31 158.06 C-103 160.72 -106.57 161.19 -111 162 C-112.32 162.33 -113.64 162.66 -115 163 C-119.38 162.99 -123.75 162.87 -128.13 162.74 C-132 163 -132 163 -135 166 C-137.78 166.88 -137.78 166.88 -140.94 167.56 C-144.75 168.4 -147.46 169.23 -151 171 C-150.94 178.12 -148.77 184.62 -146.54 191.32 C-146.2 192.37 -145.85 193.43 -145.5 194.52 C-144.77 196.74 -144.04 198.96 -143.31 201.17 C-142.19 204.55 -141.09 207.93 -139.99 211.32 C-139.28 213.48 -138.57 215.65 -137.86 217.82 C-137.53 218.82 -137.2 219.82 -136.87 220.85 C-131.99 235.51 -131.99 235.51 -126 240 C-118.87 241.37 -115.8 237.96 -111 233 C-107.2 227.8 -105.24 223.31 -104 217 C-105.98 217 -107.96 217 -110 217 C-110.33 216.67 -110.33 216.67 -112 215 C-110.84 211.9 -110.84 211.9 -108.94 207.94 C-105.07 199.49 -102.41 190.96 -100 182 C-95.4 184.3 -94.46 185.97 -91.88 190.31 C-91.53 190.88 -91.53 190.88 -89.8 193.74 C-88 197 -88 197 -86 202 C-84 202 -84 202 -81 198.44 C-77.66 194.73 -75.54 192.97 -71.44 190.5 C-67 187 -67 187 -67.38 183.12 C-67.91 181.76 -68.45 180.4 -69 179 C-68.9 177.66 -68.79 176.32 -68.69 174.94 C-69.16 167.45 -72.68 161.63 -76 155 C-76.76 153.21 -77.53 151.41 -78.31 149.56 C-78.87 148.39 -79.43 147.21 -80 146 C-83.7 146 -85.93 149.06 -88.69 151.26 Z M-4 146 C-3 148 -3 148 -3 148 Z M102 146 C98.7 148.64 95.4 151.28 92 154 C98.06 160.39 102.14 161.64 111 161 C115.19 159.12 115.19 159.12 118 157 C117 155 117 155 112.69 153.62 C108 152 108 152 104 148 C103.67 148.33 103.34 148.66 103 149 C102.67 148.01 102.34 147.02 102 146 Z M25 152 C25.33 153.32 25.66 154.64 26 156 C30.41 157.14 32.13 157.58 36 155 C35.67 153.68 35.34 152.36 35 151 C28.1 150.45 28.1 150.45 25 152 Z M-157 154 C-157 155.32 -157 156.64 -157 158 C-150.25 157.25 -150.25 157.25 -148 155 C-150.97 154.67 -153.94 154.34 -157 154 Z M53 156 C53.66 156.33 53.66 156.33 57 158 C57 157.34 57 156.68 57 156 C55.68 156 54.36 156 53 156 Z M25 164 C24.06 168.62 24.06 168.62 24 173 C24.5 173.33 24.5 173.33 27 175 C27.33 174.67 27.66 174.34 28 174 C28.52 175.2 29.03 176.39 29.56 177.62 C32.19 182.34 34.76 184.73 39 188 C39.87 188.8 40.73 189.61 41.62 190.44 C44 192 44 192 49 191 C50 187 50 187 50 185 C51.65 185.99 53.3 186.98 55 188 C57 185 57 185 57 179 C57 178.67 57 178.34 57 178 C57.99 178.99 58.98 179.98 60 181 C61.32 180.34 62.64 179.68 64 179 C64 170.06 60.25 166.61 53 162 C52.67 161.01 52.34 160.02 52 159 C46.43 158.42 41.4 159.67 36 161 C36.33 160.67 36.66 160.34 37 160 C37 159.01 37 158.02 37 157 C31.86 157 28.42 160.58 25 164 Z M-5 160 C-5.99 160.66 -6.98 161.32 -8 162 C-6.68 162 -5.36 162 -4 162 C-4.33 161.34 -4.66 160.68 -5 160 Z M67 172 C67.33 172.66 67.66 173.32 68 174 C74 174 74 174 77 172 C77.69 168.38 77.69 168.38 78 165 C73.67 165 70.14 169.36 67 172 Z M-11 167 C-11 168.98 -11 170.96 -11 173 C-10.67 173 -10.34 173 -10 173 C-10 171.02 -10 169.04 -10 167 C-10.33 167 -10.66 167 -11 167 Z M93 168 C90.39 171.91 91.16 173.47 92 178 C92.14 179.07 92.29 180.14 92.44 181.25 C93 184 93 184 95 187 C97 184 97 184 97.94 181 C99 178 99 178 102 175 C102 173.35 102 171.7 102 170 C100 170 100 170 97 173 C96.34 172.01 95.68 171.02 95 170 C94.34 169.34 93.68 168.68 93 168 Z M80 170 C77.38 175.24 78.49 176.89 81 182 C82.32 182.33 83.64 182.66 85 183 C85 184.32 85 185.64 85 187 C84.01 187.33 83.02 187.66 82 188 C86 189 86 189 87 188 C86.64 181.51 85.84 175.89 83 170 C82.01 170 81.02 170 80 170 Z M-66 174 C-67.28 177.83 -66.62 179.37 -65 183 C-63.68 183.66 -62.36 184.32 -61 185 C-60.12 181.19 -60.12 181.19 -60 177 C-62.94 175 -62.94 175 -66 174 Z M8 178 C8.31 182.12 8.31 182.12 9 186 C13.06 183.81 13.06 183.81 17 181 C16.67 179.35 16.34 177.7 16 176 C11 176 11 176 8 178 Z M72 176 C70.13 179.74 72.61 183.38 73.83 187.13 C75.47 192.54 76.62 198.04 77.78 203.57 C79.17 207.47 80.46 208.91 84 211 C84.33 210.84 84.33 210.84 86 210 C85.01 208.35 84.02 206.7 83 205 C81.79 201.04 80.93 197.04 80 193 C80.87 192.96 81.74 192.93 82.63 192.89 C94.08 192.23 94.08 192.23 99 189 C98.34 188.34 97.68 187.68 97 187 C96.34 187.33 96.34 187.33 93 189 C89.87 189.52 89.87 189.52 86.44 189.81 C85.3 189.92 84.17 190.03 83 190.14 C80 190 80 190 77 187 C75.99 183.67 74.98 180.34 74 177 C73.34 176.67 72.68 176.34 72 176 Z M75 176 C77.75 185.88 77.75 185.88 80 187 C77.25 177.12 77.25 177.12 75 176 Z M68 177 C66.93 178.97 65.93 180.97 65 183 C66.65 182.67 68.3 182.34 70 182 C70 180.35 70 178.7 70 177 C69.34 177 68.68 177 68 177 Z M-59 179 C-59.04 182.67 -59.04 186.33 -59 190 C-59.99 189.01 -60.98 188.02 -62 187 C-65 187 -65 187 -66.69 189.12 C-69 192 -69 192 -72.81 194.81 C-82.75 202.38 -84.82 206.5 -83.46 218.78 C-83.31 219.84 -83.16 220.91 -83 222 C-85.31 221.34 -87.62 220.68 -90 220 C-90.5 228.5 -90.5 228.5 -86 233 C-76.81 236.28 -65.73 236.58 -57 232 C-55.12 227.62 -55.12 227.62 -54 223 C-51 218 -51 218 -47.75 215.38 C-46.84 214.59 -45.94 213.81 -45 213 C-45.33 212.01 -45.66 211.02 -46 210 C-46.66 210 -47.32 210 -48 210 C-48 209.01 -48 208.02 -48 207 C-47.41 207.31 -47.41 207.31 -44.44 208.88 C-33.22 214.25 -21 214.7 -9.06 211.25 C-7.39 210.84 -5.72 210.43 -4 210 C-3.67 210.66 -3.67 210.66 -2 214 C-0.7 215.11 0.6 216.23 1.94 217.38 C5.55 220.6 7.43 222.51 9 227 C8.84 227.33 8.84 227.33 8 229 C8.99 229.99 9.98 230.98 11 232 C15.52 224.25 17.1 220.04 16 211 C18.94 207.81 18.94 207.81 22 205 C22 203.02 22 201.04 22 199 C15.34 197.67 14.91 199.78 10 204 C8.02 204 6.04 204 4 204 C3.77 199.61 3.73 196.6 5.56 192.56 C7.43 187.94 7.01 184.83 6 180 C5.01 179.34 4.02 178.68 3 178 C2.34 178.33 1.68 178.66 1 179 C1.01 181.5 1.05 184 1.12 186.5 C0.94 190.63 0.94 190.63 0 194 C-4.02 195.8 -7.69 195.32 -12 195 C-12.5 195.16 -12.5 195.16 -15 196 C-18.58 196.15 -22.17 196.22 -25.75 196.25 C-27.68 196.28 -29.62 196.3 -31.61 196.33 C-36.68 196.02 -39.51 195.13 -44 193 C-45.61 193.06 -47.22 193.12 -48.88 193.19 C-50.24 192.8 -51.6 192.4 -53 192 C-53.77 188.26 -53.81 184.84 -53.71 181.03 C-53.8 180.03 -53.9 179.03 -54 178 C-58 178 -58 178 -59 179 Z M-52 180 C-52.56 184.38 -52.56 184.38 -52 189 C-48.15 191.08 -45.37 192 -41 192 C-40.38 186.62 -40.38 186.62 -41 181 C-49.86 177.86 -49.86 177.86 -52 180 Z M90 179 C89.67 180.65 89.34 182.3 89 184 C89.33 184.16 89.33 184.16 91 185 C91 183.02 91 181.04 91 179 C90.67 179 90.34 179 90 179 Z M7.06 192.06 C6 195 6 195 6 199 C10 197 10 197 12.88 194.75 C16.83 192.53 18.11 192.79 22 195 C24.53 201.33 25.28 204.35 21 209.88 C20.01 210.91 19.02 211.94 18 213 C22.34 215.89 24.98 215 30 214 C36.59 209.57 38.19 205.49 38.62 197.75 C38.7 196.49 38.77 195.22 38.85 193.92 C38.9 192.96 38.95 191.99 39 191 C38.34 191 37.68 191 37 191 C35.6 193.79 35.39 196.54 34.94 199.62 C34.76 200.81 34.58 202 34.4 203.23 C34.27 204.14 34.14 205.06 34 206 C34 204 34 204 34.65 200.56 C34.77 199.88 34.77 199.88 35.38 196.44 C35.63 195.07 35.89 193.71 36.15 192.31 C36.1 191.22 36.05 190.12 36 189 C33.1 188.35 33.1 188.35 30 188 C29.67 186.35 29.34 184.7 29 183 C19.54 183 12.41 183.61 7.06 192.06 Z M92 184 C93 187 93 187 93 187 Z M57 189 C51.81 191.94 47 194 41 194 C40.31 196.85 40.31 196.85 40 200.62 C39.11 208.1 38.43 212.43 31.19 215.75 C27 217 27 217 23.25 217.5 C17.68 220.07 17.29 224.2 16 230 C20.43 235.86 27.16 236.16 34 235.88 C41.01 235.77 46.6 236.63 53.17 239.03 C64.66 242.97 76.24 241.57 86.81 236 C92.55 233 97.6 231.84 104 231 C102.6 226.44 100.81 222.3 98.62 218.06 C98.04 216.9 97.45 215.73 96.85 214.54 C96.24 213.7 95.63 212.86 95 212 C93.68 212.33 92.36 212.66 91 213 C82.69 213.35 82.69 213.35 78 211 C77.06 208.39 77.06 208.39 76.43 205.12 C76.17 203.95 75.91 202.78 75.65 201.58 C75.13 199.11 74.64 196.63 74.17 194.14 C73.4 190.78 72.73 187.99 71 185 C64.08 183.54 62.04 183.96 57 189 Z M31 186 C31.33 186.66 31.66 187.32 32 188 C32.33 187.34 32.66 186.68 33 186 C32.34 186 31.68 186 31 186 Z M82 194 C81.38 197.62 81.38 197.62 83 202 C83.5 203.51 83.99 205.01 84.5 206.56 C87 210 87 210 91.44 210.25 C98.24 208.39 98.24 208.39 101 205 C101.61 200.28 101 196.32 99 192 C93.23 192 87.52 192.24 82 194 Z M17 194 C17.33 194.66 17.66 195.32 18 196 C18.99 195.67 19.98 195.34 21 195 C19.68 194.67 18.36 194.34 17 194 Z M10.19 197.31 C9.47 198.2 8.74 199.09 8 200 C8.33 200.66 8.66 201.32 9 202 C11.64 200.02 14.28 198.04 17 196 C13 195 13 195 10.19 197.31 Z M-50 221 C-51.25 224.75 -51.25 224.75 -51 228 C-49.68 228.99 -48.36 229.98 -47 231 C-46 236 -46 236 -48 241 C-48.45 249.21 -47.59 255.13 -45 263 C-44.99 264.39 -44.98 265.79 -44.96 267.22 C-44 271 -44 271 -40.15 272.1 C-34.62 272.21 -29.1 272.29 -23.56 272.25 C-21.63 272.31 -19.69 272.38 -17.7 272.45 C-3.94 272.46 -3.94 272.46 -1.34 268.42 C-0.83 265.18 -0.9 262.26 -1 259 C-0.34 257.35 0.32 255.7 1 254 C1.23 250.74 1.23 250.74 1.19 247.31 C1.18 246.74 1.18 246.74 1.17 243.86 C1 241 1 241 0 239 C-0.55 234.19 -0.56 232.62 2.75 228.94 C3.49 227.97 4.24 227 5 226 C3.75 223 3.75 223 1 220 C-0.03 218.85 -1.06 217.69 -2.12 216.5 C-7.51 213.03 -9.89 214.45 -16 216 C-23.04 216.48 -29.51 216.2 -36.38 214.56 C-43.66 213.83 -45.46 215.43 -50 221 Z M4 231 C2 234 2 234 3 239 C11.25 242.81 17.17 244.12 26.19 244.06 C28.02 244.05 29.85 244.04 31.73 244.04 C33.14 244.02 34.55 244.01 36 244 C35.84 243.18 35.84 243.18 35 239 C31.32 238.21 31.32 238.21 26.56 237.94 C17.87 237.22 11.34 235.9 4 231 Z M-52 231 C-52.43 231.3 -52.43 231.3 -54.62 232.81 C-65.81 240.06 -80.28 237.69 -92 233 C-93.12 236.25 -93.12 236.25 -93 240 C-81.89 247.11 -65.92 245.45 -54 241 C-50.75 239.12 -50.75 239.12 -49 237 C-50 232 -50 232 -52 231 Z M40 239 C40.44 245.21 40.99 251.3 42.06 257.44 C43.73 267.31 43.73 267.31 40.52 270.35 C39.48 271.1 38.45 271.85 37.38 272.62 C34.21 274.91 34.21 274.91 32 277 C34 280 34 280 37.06 280.06 C43.47 278.33 48.34 274.66 53 270 C53.58 265.35 53.27 260.68 53.12 256 C53.12 255.35 53.12 255.35 53.12 252.07 C52.84 242.61 52.84 242.61 48.74 239.62 C45 239 45 239 40 239 Z M78 243 C78.69 246.75 78.69 246.75 81 252 C82.03 254.58 83.05 257.16 84.06 259.75 C85.04 262.17 86.02 264.58 87 267 C87.66 268.65 88.32 270.3 89 272 C98.46 281 98.46 281 106 281 C107 277 107 277 104.94 274.62 C103.02 272.91 101.06 271.26 99.04 269.67 C94.74 264.48 93.82 259.12 92.38 252.62 C91.41 248.32 90.32 244.22 89 240 C84.38 240 81.85 240.41 78 243 Z M-95 241 C-96.65 243.64 -98.3 246.28 -100 249 C-93.38 252 -93.38 252 -90 252 C-89.38 245.6 -89.38 245.6 -92.5 242.56 C-93.32 242.05 -94.15 241.53 -95 241 Z M55 244 C55 245.65 55 247.3 55 249 C57.67 250.19 57.67 250.19 61.19 251 C70.13 253.45 73.59 256.88 76 266 C76.15 269.4 76.13 272.75 76.01 276.14 C76 279 76 279 77 282 C78.65 282 80.3 282 82 282 C81.96 280.45 81.92 278.91 81.88 277.31 C82 272 82 272 84 267 C83 262.02 81.45 257.93 79.5 253.25 C78.87 251.73 78.24 250.21 77.59 248.64 C76 245 76 245 75 244 C71.84 243.74 68.67 243.54 65.5 243.38 C64.63 243.33 64.63 243.33 60.22 243.09 C56 243 56 243 55 244 Z M5 244 C4.04 247.22 3.67 250.29 3.39 253.63 C3 257 3 257 1 262 C0.32 269.49 0.32 269.49 5 273 C7.78 274.01 10.6 274.91 13.44 275.75 C14.18 275.97 14.18 275.97 17.93 277.11 C24.96 278.65 28.73 276.21 34.38 272.31 C35.64 271.46 36.91 270.61 38.21 269.74 C41 267 41 267 40.91 263.67 C40.61 262.79 40.31 261.91 40 261 C38.68 261.33 37.36 261.66 36 262 C36 259.89 37.22 257.96 38 256 C35.03 256.99 32.06 257.98 29 259 C29.33 258.01 29.66 257.02 30 256 C31.36 255.75 32.72 255.5 34.12 255.25 C38 254 38 254 38.88 250.38 C37 247 37 247 34.17 246.61 C31.71 246.66 29.25 246.76 26.79 246.88 C20.25 247.09 14.1 245.74 7.94 243.56 C6.97 243.71 6 243.85 5 244 Z M-58.43 244.93 C-64.47 246.09 -70 246.23 -76.12 246.12 C-77.18 246.12 -78.23 246.11 -79.31 246.1 C-81.88 246.07 -84.44 246.04 -87 246 C-87 251 -87 251 -82.06 254.19 C-80.39 255.12 -78.72 256.04 -77 257 C-76.84 257.33 -76.84 257.33 -76 259 C-76.95 258.5 -77.9 258.01 -78.88 257.5 C-82 256 -82 256 -84 256 C-84 256.66 -84 257.32 -84 258 C-83.34 258 -82.68 258 -82 258 C-81.34 259.32 -80.68 260.64 -80 262 C-84.26 260.58 -87.67 258.05 -91.41 255.59 C-96.57 252.42 -101.01 252.51 -107 253 C-114.43 257.05 -118.68 260.25 -119.44 269.06 C-119 274 -119 274 -115 278 C-93.39 284.72 -69.14 280.8 -49 271 C-46.86 268.86 -47.88 264.76 -48 262 C-48.15 261.54 -48.15 261.54 -48.94 259.19 C-50 256 -50 256 -50.44 250.19 C-50.62 248.48 -50.81 246.76 -51 245 C-54 244 -54 244 -58.43 244.93 Z M55 255 C55.25 261.89 55.5 265.82 60 271 C60.29 272.61 60.58 274.22 60.88 275.88 C61.25 277.24 61.62 278.6 62 280 C66.61 280.4 68.27 278.8 72 276 C74.06 269.82 73.58 264.43 70 259 C67 255.74 58.93 251.07 55 255 Z M51.25 273.31 C44.53 279.14 39.23 281.98 30.31 280.31 C26.03 279.91 24.86 280.89 22 284 C21.67 285.32 21.34 286.64 21 288 C29.27 292.96 36.22 291.33 45 288 C49.62 284.81 49.62 284.81 53 282 C53.66 283.32 54.32 284.64 55 286 C58 285 58 285 59 282 C59.41 276.43 59.03 275.05 56 270 C55 270 55 270 51.25 273.31 Z M85 272 C84.92 274.12 84.86 276.25 84.81 278.38 C84.78 279.56 84.74 280.74 84.71 281.96 C85 285 85 285 88 287 C88.66 285.35 89.32 283.7 90 282 C90.66 283.32 91.32 284.64 92 286 C100.38 291.62 107.39 293.84 117 290 C115.87 285.46 114.5 283.99 111 281 C110.67 281.16 110.67 281.16 109 282 C98.08 282.64 93.96 279.15 86 272 C85.67 272 85.34 272 85 272 Z M-124 273 C-124.66 274.65 -125.32 276.3 -126 278 C-124.35 278 -122.7 278 -121 278 C-121.33 276.35 -121.66 274.7 -122 273 C-122.66 273 -123.32 273 -124 273 Z M-54.62 276.31 C-55.63 276.74 -56.63 277.17 -57.66 277.61 C-60 279 -60 279 -60 282 C-54.26 281.6 -50.41 280.84 -46 277 C-46.33 276.01 -46.66 275.02 -47 274 C-49.89 274 -51.99 275.16 -54.62 276.31 Z M0 275 C1 279 1 279 6 281 C8.33 281.08 10.67 281.09 13 281 C13 280.01 13 279.02 13 278 C8.49 276.21 4.88 275 0 275 Z M-118 280 C-117 284 -117 284 -112.38 285.69 C-97.84 289.24 -78.6 290.45 -66 281 C-70.68 281.45 -75.34 281.91 -79.99 282.55 C-93.62 284.37 -104.78 283.66 -118 280 Z M67 283 C68.98 283 70.96 283 73 283 C73 282.34 73 281.68 73 281 C69 281 69 281 67 283 Z " fill="#000000" transform="translate(398,242)"/>
<path d="M0 0 C1.56 0.76 3.12 1.51 4.73 2.29 C25.25 12.25 25.25 12.25 28.62 15.62 C28.32 20.27 27.53 21.75 24.62 25.62 C19.75 24.65 16.01 23.15 11.5 21.12 C3.85 17.7 3.85 17.7 0.62 16.62 C-0.44 20.44 -0.44 20.44 -0.38 24.62 C3.31 26.25 3.31 26.25 8.62 27.62 C12.89 29.24 16.93 30.93 20.62 33.62 C21.11 38.32 19.73 40.42 17.62 44.62 C12.65 44.5 8.67 43 4.2 40.93 C3.6 40.66 3.6 40.66 0.56 39.27 C-0.7 38.69 -1.96 38.1 -3.25 37.5 C-5.85 36.31 -8.45 35.12 -11.05 33.94 C-11.67 33.65 -11.67 33.65 -14.85 32.2 C-20.62 29.62 -26.49 27.28 -32.38 24.99 C-35.38 23.62 -35.38 23.62 -38.38 20.62 C-38.2 15.74 -37.9 14.15 -34.38 10.62 C-28.41 10.62 -23.31 13.19 -17.95 15.57 C-15.38 16.62 -15.38 16.62 -13.38 16.62 C-12.25 13.94 -12.25 13.94 -12.38 10.62 C-16.47 7.51 -20.75 5.44 -25.38 3.19 C-29.38 0.62 -29.38 0.62 -29.38 -5.38 C-22.7 -16.5 -9.45 -4.59 0 0 Z " fill="#000000" transform="translate(137.375,255.375)"/>
<path d="M0 0 C2.6 4.03 3.19 5.23 2 10 C-5.23 15.49 -13.3 19.41 -21.38 23.5 C-23.88 24.78 -26.39 26.06 -28.9 27.34 C-30.1 27.95 -31.3 28.56 -32.54 29.19 C-35.78 30.89 -38.94 32.69 -42.1 34.53 C-47 37 -47 37 -52 36 C-55 31 -55 31 -54 26 C-50.67 23.77 -47.46 21.87 -43.94 20 C-42.92 19.44 -41.91 18.89 -40.86 18.32 C-38.7 17.14 -36.53 15.97 -34.36 14.81 C-30.98 12.99 -27.61 11.15 -24.24 9.3 C-4.98 -1.24 -4.98 -1.24 0 0 Z " fill="#000000" transform="translate(642,249)"/>
<path d="M0 0 C3.18 2.76 4.02 4.12 3.93 8.36 C2.79 12.82 1.25 14.21 -2.25 17.12 C-12.32 25.65 -12.32 25.65 -15 31 C-13.47 30.34 -11.94 29.68 -10.36 29 C-8.35 28.14 -6.33 27.29 -4.31 26.44 C-3.81 26.22 -3.81 26.22 -1.26 25.11 C6.43 21.89 6.43 21.89 12 23 C15 28 15 28 15 33 C10.85 36.12 7.3 37.59 2.46 39.43 C0.77 40.08 -0.93 40.73 -2.68 41.4 C-4.45 42.07 -6.23 42.74 -8.06 43.44 C-8.94 43.77 -8.94 43.77 -13.37 45.46 C-16.75 46.75 -20.13 48.03 -23.52 49.3 C-26.2 50.32 -28.87 51.36 -31.52 52.47 C-38.48 55.31 -38.48 55.31 -44 52 C-46 48 -46 48 -45 43 C-42.42 40.08 -39.85 37.39 -37.06 34.69 C-36.32 33.95 -35.58 33.21 -34.81 32.44 C-29.28 27 -29.28 27 -27 27 C-27 26.34 -27 25.68 -27 25 C-26.34 25 -25.68 25 -25 25 C-25 24.34 -25 23.68 -25 23 C-26.39 23.64 -27.77 24.28 -29.2 24.93 C-31.03 25.77 -32.86 26.6 -34.69 27.44 C-36.49 28.26 -38.28 29.08 -40.14 29.93 C-45 32 -45 32 -50 33 C-54.89 28.11 -54.89 28.11 -55 23 C-50.77 18.77 -45.58 17.11 -40.12 14.88 C-37.77 13.9 -35.41 12.92 -33.06 11.94 C-32.47 11.7 -32.47 11.7 -29.48 10.46 C-26.23 9.1 -23 7.7 -19.79 6.28 C-19.31 6.07 -19.31 6.07 -16.91 5.01 C-14.33 3.87 -11.75 2.73 -9.17 1.58 C-5 0 -5 0 0 0 Z " fill="#000000" transform="translate(648,270)"/>
<path d="M0 0 C1.62 3.31 1.62 3.31 2 7 C-2 10 -2 10 -4 10 C-4 10.66 -4 11.32 -4 12 C-2.35 12.33 -0.7 12.66 1 13 C1.33 14.32 1.66 15.64 2 17 C2.99 17.66 3.98 18.32 5 19 C3.19 19.5 3.19 19.5 -6 22 C-6 21.34 -6 20.68 -6 20 C-6.99 19.67 -7.98 19.34 -9 19 C-10.33 9.88 -10.95 0 0 0 Z " fill="#000000" transform="translate(382,283)"/>
<path d="M0 0 C4.88 7.26 5.44 13.53 1.88 21.75 C-5.94 29.95 -17.72 29.85 -28.12 27.74 C-39.74 24.48 -51.08 18.64 -56.69 7.44 C-57.31 -1.53 -56.9 -6.31 -49.69 -11.88 C-34.39 -20.48 -11.58 -11.18 0 0 Z M-41.69 -0.56 C-41.57 5.78 -39.99 8.06 -34.69 11.44 C-19.43 17.68 -19.43 17.68 -11.69 14.44 C-10.69 13.44 -10.69 13.44 -10.62 10.19 C-12.55 3.4 -18.3 1.96 -24.5 -0.38 C-38.64 -3.61 -38.64 -3.61 -41.69 -0.56 Z " fill="#000000" transform="translate(144.6875,305.5625)"/>
<path d="M0 0 C4.62 1.88 4.62 1.88 8.62 5.88 C6.98 5.88 5.32 5.88 3.62 5.88 C3.95 6.87 4.29 7.86 4.62 8.88 C4.67 12.54 4.67 16.21 4.62 19.88 C0.62 19.69 0.62 19.69 -3.38 18.88 C-3.38 13.88 -3.38 13.88 -2.38 11.88 C-3.69 11.21 -5.01 10.56 -6.38 9.88 C-6.05 9.21 -5.71 8.56 -5.38 7.88 C-4.71 8.2 -4.06 8.54 -3.38 8.88 C-3.38 7.88 -3.38 6.89 -3.38 5.88 C-2.71 5.55 -2.06 5.21 -1.38 4.88 C-1.05 3.56 -0.71 2.24 -0.38 0.88 C-2.36 0.88 -4.33 0.88 -6.38 0.88 C-4.38 -1.12 -4.38 -1.12 0 0 Z " fill="#000000" transform="translate(448.375,314.125)"/>
<path d="M0 0 C3.12 0.88 3.12 0.88 6 2 C5.67 2.91 5.34 3.81 5 4.75 C4 8 4 8 4 12 C4.66 12 5.32 12 6 12 C6 12.66 6 13.32 6 14 C3.34 14.41 0.68 14.75 -2 15 C-2.05 12.88 -2.09 10.75 -2.12 8.62 C-2.15 7.44 -2.17 6.26 -2.2 5.04 C-2 2 -2 2 0 0 Z " fill="#000000" transform="translate(470,318)"/>
<path d="M0 0 C4.15 6.1 3.96 11.66 1.12 18.38 C-2.1 23.78 -2.26 22.94 -9 22.94 C-13 19.94 -13 19.94 -12.62 15.44 C-12.42 13.95 -12.21 12.47 -12 10.94 C-15.43 5.8 -19.85 6.6 -25.72 6.65 C-32.7 7.26 -40.19 9.64 -45 14.94 C-46 19.94 -46 19.94 -45 21.94 C-42.34 22.35 -39.68 22.68 -37 22.94 C-37.08 21.84 -37.16 20.75 -37.25 19.62 C-37 15.94 -37 15.94 -33 12.94 C-31.35 12.94 -29.7 12.94 -28 12.94 C-21.72 26.02 -21.72 26.02 -25 30.94 C-34.42 34.89 -44.62 36.87 -54 31.94 C-59.65 27.27 -61.87 22.26 -61 14.94 C-51.15 -4.47 -17.09 -17.45 0 0 Z " fill="#000000" transform="translate(668,326.0625)"/>
<path d="M0 0 C5.9 0.41 11.56 1.43 17.36 2.58 C17.93 2.69 17.93 2.69 20.86 3.27 C48 8.78 48 8.78 53.79 20.7 C55.15 27.86 54.24 34.32 48.67 39.33 C35.13 47.06 35.13 47.06 27.67 43.33 C25.91 39.82 26.51 36.17 26.67 32.33 C29.55 28 31.73 29.17 36.67 29.33 C37.33 29 37.99 28.67 38.67 28.33 C37.67 23.33 37.67 23.33 34.21 21.64 C29.47 20.27 24.77 19.2 19.92 18.27 C18.17 17.92 16.42 17.58 14.62 17.23 C10.62 16.5 6.63 15.88 2.61 15.33 C-2.33 14.33 -2.33 14.33 -5.33 10.33 C-6.18 0.61 -6.18 0.61 0 0 Z " fill="#000000" transform="translate(86.33203125,332.671875)"/>
<path d="M0 0 C1.99 3.46 2.85 5.31 1 9 C-2.34 9.27 -2.34 9.27 -6.5 9.25 C-7.87 9.26 -9.24 9.26 -10.66 9.27 C-14 9 -14 9 -15 7 C-15 -2.88 -8.67 -1.33 0 0 Z M-11 1 C-11.33 1.99 -11.66 2.98 -12 4 C-11.34 4.33 -10.68 4.66 -10 5 C-10.99 5.66 -11.98 6.32 -13 7 C-9.09 8.96 -4.28 8.05 0 8 C0 2 0 2 -1 1 C-6 0.75 -6 0.75 -11 1 Z " fill="#000000" transform="translate(377,426)"/>
<path d="M0 0 C2.16 3.24 2.98 5.9 4.07 9.64 C4.47 11.01 4.86 12.37 5.28 13.78 C5.7 15.26 6.13 16.73 6.56 18.25 C7.46 21.33 8.35 24.41 9.24 27.49 C9.7 29.07 10.15 30.64 10.62 32.26 C11.96 36.85 13.32 41.43 14.7 46.01 C15.11 47.42 15.53 48.83 15.97 50.28 C16.77 52.97 17.58 55.66 18.39 58.35 C18.75 59.56 19.11 60.77 19.48 62.02 C19.8 63.08 20.12 64.15 20.45 65.24 C21 68 21 68 20 72 C15.06 55.72 10.21 39.41 5.5 23.06 C5.07 21.57 4.63 20.08 4.19 18.54 C3.79 17.14 3.38 15.73 2.97 14.29 C2.61 13.05 2.26 11.81 1.89 10.53 C1.01 7.03 0.44 3.58 0 0 Z " fill="#000000" transform="translate(243,432)"/>
<path d="M0 0 C4.27 4.27 4.9 5.22 5 11 C3.3 15.72 0.66 18.63 -3 22 C-1.68 22.66 -0.36 23.32 1 24 C3.51 30.29 3.36 34.22 0.38 40.31 C-4.08 45.36 -9.4 46.86 -16 46 C-22.55 41.73 -22.11 38.59 -22 31 C-20.02 31 -18.04 31 -16 31 C-15.66 33.67 -15.33 36.33 -15 39 C-12.19 40.25 -12.19 40.25 -9 40 C-4.53 35.53 -4.19 34.1 -4 28 C-6 25 -6 25 -11 24 C-11 22.35 -11 20.7 -11 19 C-8.19 17.44 -8.19 17.44 -5 16 C-1.5 11.33 -1.85 10.42 -3 5 C-8.75 5.62 -8.75 5.62 -11 9 C-11.33 10.65 -11.66 12.3 -12 14 C-15.56 14.31 -15.56 14.31 -19 14 C-17.91 6.97 -15.75 4.14 -10 0 C-6.19 -1.27 -3.89 -0.89 0 0 Z " fill="#000000" transform="translate(424,619)"/>
<path d="M0 0 C-1.14 5.71 -3.49 10.31 -6.12 15.44 C-7.13 17.41 -8.14 19.38 -9.14 21.35 C-9.64 22.31 -10.13 23.27 -10.63 24.26 C-11.83 26.67 -12.96 29.11 -14.07 31.56 C-14.65 32.82 -15.22 34.08 -15.81 35.38 C-16.29 36.48 -16.77 37.58 -17.27 38.71 C-19 41 -19 41 -25 41 C-23.35 35.48 -20.92 30.44 -18.44 25.25 C-17.63 23.56 -16.83 21.88 -16 20.14 C-14 16 -14 16 -13 14 C-13.35 14.26 -13.35 14.26 -15.12 15.57 C-16.03 16.23 -16.94 16.88 -17.88 17.56 C-18.33 17.89 -18.33 17.89 -20.62 19.57 C-23 21 -23 21 -25 20 C-25 15.25 -16.72 10.77 -13.25 7.88 C-10.44 5.39 -8.28 2.95 -6 0 C-4 -1 -4 -1 0 0 Z " fill="#000000" transform="translate(345,621)"/>
<path d="M0 0 C5.43 10.86 -0.71 24.39 -6.81 33.75 C-12.14 40.18 -15.05 42.12 -23.44 42.12 C-28.12 39.78 -28.4 38.7 -28.75 33.38 C-28.65 31.97 -28.54 30.57 -28.44 29.12 C-26.46 29.12 -24.48 29.12 -22.44 29.12 C-21.56 32.62 -21.56 32.62 -21.44 36.12 C-15.96 33.94 -13.09 31.42 -10.44 26.12 C-11.65 26.39 -12.87 26.66 -14.12 26.94 C-18.44 27.12 -18.44 27.12 -21.44 25.31 C-25.09 19.49 -24.17 14.11 -21.88 7.88 C-16.79 0.06 -8.86 -6.81 0 0 Z M-14.44 7.12 C-17.03 11.96 -17.88 15.65 -17.44 21.12 C-15.3 23.26 -12.03 21.74 -9.44 21.12 C-4.33 16.43 -3.44 10.84 -3.44 4.12 C-8.01 -0.44 -11.16 3.18 -14.44 7.12 Z " fill="#000000" transform="translate(368.4375,623.875)"/>
<path d="M0 0 C5 5 5 5 5 10 C1.97 17.35 1.97 17.35 -2 20 C-1 24 -1 24 0 25 C0.63 32.67 -0.22 36.92 -5 43 C-11.58 46.29 -17.82 46.07 -24 42 C-27.47 36.79 -26.52 32.34 -24.31 26.69 C-22 23 -22 23 -17 20 C-17.33 19.01 -17.66 18.02 -18 17 C-18.46 8.99 -17.7 5.03 -11 0 C-6.96 -1.35 -4.16 -0.83 0 0 Z M-10.31 6.06 C-12.38 9.67 -12.46 11.9 -12 16 C-10 18 -10 18 -6 17 C-1.34 12.34 -1.49 11.26 -2 5 C-4.89 2.11 -7.87 3.88 -10.31 6.06 Z M-17 26 C-19.85 30.28 -20.57 33.06 -19 38 C-16 40 -16 40 -11 40 C-5.83 35.52 -4.91 31.71 -6 25 C-10.86 21.84 -11.91 22.94 -17 26 Z " fill="#000000" transform="translate(396,622)"/>
</svg>
